<svg width="206" height="156" viewBox="0 0 206 156" fill="none" xmlns="http://www.w3.org/2000/svg">
<g filter="url(#filter0_d_208_9439)">
<rect x="26.8418" y="46.6483" width="167" height="46" rx="23" transform="rotate(16.2105 26.8418 46.6483)" fill="white"/>
<path d="M40.9885 82.0949C39.8618 81.7673 38.9294 81.2442 38.1914 80.5256C37.4533 79.807 36.9566 78.9676 36.7011 78.0075C36.4498 77.0332 36.4706 76.0159 36.7636 74.9556L37.7987 75.2565C38.1099 74.1861 38.6005 73.3131 39.2705 72.6372C39.9586 71.9514 40.7575 71.4887 41.6673 71.2491C42.5911 71.0137 43.56 71.0433 44.574 71.3381C45.588 71.6329 46.4147 72.1253 47.0542 72.8153C47.7078 73.5093 48.1341 74.3282 48.3332 75.272C48.5505 76.2058 48.5036 77.2079 48.1924 78.2782C47.8853 79.3345 47.3716 80.2085 46.6512 80.9002C45.9348 81.5778 45.0866 82.0262 44.1065 82.2453C43.1263 82.4644 42.087 82.4142 40.9885 82.0949ZM41.5413 80.1936C42.2454 80.3983 42.9011 80.4285 43.5081 80.2843C44.1334 80.13 44.6717 79.8283 45.123 79.3791C45.5885 78.934 45.9215 78.3664 46.1221 77.6763C46.3227 76.9862 46.3439 76.3356 46.1855 75.7244C46.0454 75.1033 45.7507 74.567 45.3015 74.1157C44.8705 73.6543 44.3029 73.3213 43.5987 73.1166C42.8664 72.9037 42.1735 72.8702 41.5201 73.0163C40.8707 73.1483 40.3063 73.4348 39.8268 73.8758C39.3655 74.3068 39.0345 74.8673 38.8339 75.5574C38.6332 76.2475 38.6101 76.9052 38.7643 77.5305C38.9326 78.1598 39.2534 78.7113 39.7267 79.1849C40.2041 79.6444 40.8089 79.9807 41.5413 80.1936ZM36.7636 74.9556L37.4787 72.5745C37.976 70.9168 38.8759 69.5288 40.1785 68.4107C41.4952 67.2966 43.2361 66.5885 45.4012 66.2862L49.8614 65.6813C50.1758 65.6505 50.4334 65.7101 50.6342 65.8602C50.8391 65.9961 50.9539 66.2051 50.9788 66.4873C50.9996 66.7836 50.9491 67.0362 50.8272 67.2451C50.7236 67.4441 50.4641 67.5748 50.0488 67.6374L45.1892 68.3553C44.0723 68.5193 43.1069 68.8191 42.293 69.2545C41.4791 69.6899 40.8046 70.2499 40.2695 70.9344C39.7527 71.609 39.3512 72.3858 39.0651 73.2648L38.3902 75.4285L36.7636 74.9556ZM55.2474 86.2403C54.0785 85.9005 53.108 85.351 52.3359 84.5919C51.5819 83.8229 51.0713 82.926 50.8041 81.9013C50.555 80.8667 50.5963 79.779 50.928 78.6382C51.2637 77.4833 51.7979 76.5389 52.5306 75.805C53.2815 75.061 54.1581 74.5674 55.1606 74.3243C56.167 74.067 57.2266 74.1001 58.3392 74.4236C59.4377 74.743 60.3097 75.2638 60.955 75.986C61.6045 76.6941 62.0086 77.5371 62.1672 78.5149C62.3441 79.4828 62.2708 80.523 61.9473 81.6356C61.8695 81.9032 61.7124 82.1019 61.4761 82.2318C61.2439 82.3475 60.987 82.3645 60.7053 82.2826L52.1918 79.8075L52.6831 78.1175L61.1333 80.5741L60.0951 80.9138C60.2858 80.2056 60.3272 79.5379 60.2193 78.9109C60.1154 78.2697 59.8642 77.7155 59.4654 77.2483C59.0667 76.7811 58.5152 76.4451 57.811 76.2404C57.0083 76.007 56.267 75.9824 55.5872 76.1666C54.9215 76.3549 54.3507 76.7159 53.8748 77.2496C53.403 77.7693 53.0544 78.4164 52.8293 79.191C52.6041 79.9655 52.5795 80.7068 52.7555 81.4148C52.9315 82.1227 53.2782 82.7428 53.7955 83.2751C54.3128 83.8073 54.9729 84.1901 55.7756 84.4235C56.2122 84.5504 56.6784 84.602 57.1741 84.5781C57.688 84.5442 58.1165 84.4626 58.4596 84.3332C58.7158 84.2397 58.9637 84.2277 59.2031 84.2973C59.4607 84.357 59.6585 84.4908 59.7966 84.699C59.9746 84.9798 60.0338 85.2491 59.9742 85.5067C59.9146 85.7643 59.7384 85.9498 59.4458 86.0633C58.8564 86.3043 58.1678 86.4402 57.3799 86.4708C56.6061 86.5055 55.8953 86.4286 55.2474 86.2403ZM67.7655 89.8796C66.6388 89.5521 65.7056 89.0058 64.9657 88.2409C64.244 87.4659 63.7566 86.5681 63.5034 85.5476C63.2685 84.517 63.3127 83.4454 63.6362 82.3328C63.9678 81.192 64.5091 80.2497 65.26 79.5057C66.0108 78.7618 66.8875 78.2682 67.8899 78.025C68.8964 77.7678 69.9559 77.8009 71.0685 78.1244C71.8995 78.3659 72.6129 78.749 73.2088 79.2735C73.8088 79.784 74.2913 80.436 74.6563 81.2294C74.788 81.5121 74.7909 81.7649 74.6649 81.988C74.539 82.211 74.3226 82.3772 74.0159 82.4866C73.7778 82.5701 73.5452 82.5559 73.318 82.4441C73.095 82.3181 72.9136 82.1279 72.7737 81.8734C72.2965 80.9405 71.5439 80.3245 70.5158 80.0256C69.7975 79.8168 69.1146 79.8016 68.4671 79.9799C67.8237 80.1441 67.2611 80.477 66.7792 80.9784C66.2974 81.4798 65.9398 82.1319 65.7065 82.9347C65.4854 83.6952 65.4437 84.4162 65.5816 85.0978C65.7336 85.7835 66.04 86.3843 66.501 86.9002C66.9661 87.4019 67.5718 87.7613 68.3183 87.9783C68.8112 88.1216 69.2571 88.1902 69.6561 88.184C70.0732 88.1678 70.4735 88.078 70.857 87.9145C71.1356 87.797 71.3966 87.7659 71.6401 87.8215C71.8878 87.8629 72.0806 87.9877 72.2186 88.1958C72.4007 88.4626 72.469 88.7269 72.4235 88.9885C72.382 89.2362 72.2341 89.4299 71.9796 89.5697C70.6912 90.2185 69.2866 90.3218 67.7655 89.8796ZM84.9924 94.8192C84.6825 94.7291 84.4506 94.5548 84.2967 94.2962C84.1609 94.0276 84.1381 93.7384 84.2282 93.4286L85.739 88.2317C85.9724 87.429 86.0149 86.7311 85.8666 86.1381C85.7182 85.5451 85.4253 85.0552 84.9879 84.6684C84.5687 84.2716 84.0352 83.979 83.3873 83.7906C82.7958 83.6187 82.2259 83.5828 81.6774 83.683C81.129 83.7832 80.6545 83.9966 80.2541 84.3231C79.8578 84.6356 79.5839 85.0523 79.4324 85.5734L78.1015 85.1865C78.3595 84.2992 78.8 83.572 79.4231 83.0047C80.0645 82.4275 80.8177 82.0431 81.6829 81.8517C82.548 81.6603 83.4454 81.6997 84.3749 81.9699C85.3467 82.2525 86.1514 82.7155 86.7891 83.3591C87.4449 83.9927 87.8744 84.7744 88.0776 85.7041C88.2949 86.6379 88.2337 87.6892 87.8938 88.8582L86.383 94.055C86.2929 94.3648 86.1115 94.5947 85.8388 94.7445C85.5844 94.8844 85.3022 94.9093 84.9924 94.8192ZM76.3098 92.2949C76 92.2049 75.7681 92.0305 75.6142 91.7719C75.4784 91.5034 75.4556 91.2142 75.5457 90.9043L78.2849 81.4824C78.379 81.1585 78.5534 80.9266 78.8079 80.7868C79.0764 80.651 79.3656 80.6282 79.6755 80.7183C79.9994 80.8124 80.2313 80.9868 80.3711 81.2413C80.511 81.4957 80.5338 81.785 80.4396 82.1089L77.7005 91.5308C77.6104 91.8406 77.436 92.0725 77.1775 92.2264C76.923 92.3663 76.6338 92.3891 76.3098 92.2949ZM97.3225 85.8716C97.5338 85.933 97.7075 86.0446 97.8438 86.2064C97.98 86.3683 98.0626 86.5832 98.0916 86.8513L99.6981 97.5595C99.743 97.878 99.6834 98.1356 99.5193 98.3323C99.3593 98.5149 99.1432 98.6277 98.871 98.6708C98.5202 98.7215 98.2424 98.6789 98.0375 98.543C97.8327 98.4071 97.6937 98.1758 97.6207 97.849L96.2716 87.6739L97.349 87.9871L90.6282 95.8162C90.4236 96.0469 90.1823 96.1677 89.9043 96.1785C89.6444 96.1793 89.387 96.0663 89.1322 95.8394C88.9015 95.6349 88.7605 95.4106 88.7092 95.1666C88.6721 94.9267 88.7648 94.6864 88.9876 94.4457L96.1058 86.274C96.4522 85.8706 96.8578 85.7365 97.3225 85.8716ZM106.829 101.236C105.801 100.938 104.952 100.416 104.283 99.6714C103.618 98.9128 103.172 98.0273 102.947 97.0149C102.741 95.9926 102.799 94.9251 103.122 93.8125C103.446 92.6999 103.99 91.7736 104.755 91.0338C105.534 90.298 106.434 89.8035 107.454 89.5504C108.493 89.2872 109.562 89.3154 110.66 89.6347C111.759 89.9541 112.669 90.5013 113.391 91.2762C114.116 92.0371 114.604 92.9348 114.853 93.9695C115.116 95.0082 115.086 96.0839 114.762 97.1965L113.939 96.957C113.615 98.0696 113.085 98.9999 112.348 99.748C111.63 100.486 110.786 100.997 109.818 101.281C108.854 101.55 107.857 101.535 106.829 101.236ZM107.804 99.458C108.523 99.6668 109.213 99.6841 109.874 99.5099C110.54 99.3216 111.121 98.9788 111.617 98.4814C112.117 97.97 112.475 97.3411 112.692 96.5946C112.913 95.8341 112.948 95.111 112.796 94.4254C112.648 93.7256 112.342 93.1248 111.876 92.623C111.416 92.1072 110.826 91.7448 110.108 91.536C109.403 91.3313 108.711 91.321 108.032 91.5052C107.37 91.6795 106.782 92.0202 106.268 92.5276C105.772 93.0249 105.414 93.6538 105.193 94.4143C104.976 95.1608 104.941 95.8839 105.089 96.5836C105.255 97.2734 105.569 97.8762 106.029 98.3921C106.509 98.898 107.1 99.2533 107.804 99.458ZM112.002 102.672C111.692 102.582 111.461 102.407 111.307 102.149C111.171 101.88 111.148 101.591 111.238 101.281L112.178 98.0489L113.23 95.9263L114.762 97.1965L113.393 101.907C113.303 102.217 113.121 102.447 112.849 102.597C112.594 102.737 112.312 102.762 112.002 102.672ZM131.455 108.327C131.145 108.237 130.913 108.063 130.759 107.804C130.623 107.535 130.6 107.246 130.69 106.936L132.447 100.894C132.705 100.007 132.677 99.2889 132.363 98.7394C132.054 98.1759 131.547 97.7918 130.842 97.5871C130.11 97.3741 129.431 97.4516 128.805 97.8194C128.192 98.1913 127.772 98.7716 127.542 99.5602L125.789 99.0505C126.055 98.1351 126.486 97.3896 127.081 96.8142C127.68 96.2246 128.389 95.8351 129.207 95.6454C130.04 95.4599 130.915 95.5002 131.83 95.7664C132.633 95.9997 133.293 96.3826 133.81 96.9148C134.327 97.4471 134.655 98.1074 134.792 98.8957C134.948 99.6741 134.884 100.549 134.602 101.521L132.845 107.563C132.755 107.873 132.581 108.104 132.322 108.258C132.068 108.398 131.778 108.421 131.455 108.327ZM117.364 104.23C117.054 104.14 116.822 103.966 116.668 103.707C116.533 103.439 116.51 103.15 116.6 102.84L119.333 93.439C119.427 93.1151 119.601 92.8832 119.856 92.7434C120.124 92.6076 120.414 92.5848 120.723 92.6749C121.047 92.769 121.279 92.9434 121.419 93.1979C121.559 93.4524 121.582 93.7416 121.488 94.0655L118.755 103.466C118.664 103.776 118.49 104.008 118.232 104.162C117.977 104.302 117.688 104.325 117.364 104.23ZM124.42 106.282C124.11 106.192 123.878 106.017 123.724 105.759C123.588 105.49 123.566 105.201 123.656 104.891L125.412 98.8493C125.67 97.962 125.642 97.2437 125.328 96.6942C125.019 96.1307 124.512 95.7466 123.808 95.5419C123.075 95.329 122.396 95.4064 121.77 95.7742C121.144 96.142 120.716 96.7202 120.487 97.5089L119.156 97.122C119.422 96.2066 119.838 95.457 120.405 94.8734C120.976 94.2757 121.643 93.8738 122.405 93.6678C123.168 93.4618 123.964 93.4796 124.795 93.7212C125.598 93.9546 126.258 94.3374 126.775 94.8696C127.293 95.4019 127.62 96.0622 127.757 96.8505C127.913 97.6289 127.849 98.504 127.567 99.4757L125.81 105.518C125.72 105.827 125.546 106.059 125.287 106.213C125.033 106.353 124.744 106.376 124.42 106.282ZM145.836 112.485C145.526 112.395 145.294 112.221 145.14 111.962C145.005 111.694 144.982 111.404 145.072 111.094L147.805 101.694C147.899 101.37 148.073 101.138 148.328 100.998C148.596 100.862 148.886 100.839 149.195 100.93C149.519 101.024 149.744 101.196 149.87 101.446C149.996 101.697 150.012 101.984 149.917 102.308L147.184 111.709C147.094 112.018 146.927 112.252 146.682 112.41C146.442 112.554 146.16 112.579 145.836 112.485ZM137.153 109.961C136.844 109.871 136.619 109.698 136.479 109.444C136.357 109.18 136.341 108.892 136.432 108.583L139.165 99.1817C139.259 98.8578 139.426 98.6239 139.666 98.4799C139.921 98.3401 140.203 98.3152 140.513 98.4053C140.837 98.4995 141.069 98.6738 141.209 98.9283C141.348 99.1828 141.371 99.472 141.277 99.7959L138.544 109.197C138.454 109.507 138.28 109.738 138.021 109.892C137.767 110.032 137.477 110.055 137.153 109.961ZM139.424 105.145L139.977 103.244L147.392 105.4L146.839 107.301L139.424 105.145ZM155.898 115.502C154.757 115.17 153.822 114.631 153.092 113.884C152.366 113.123 151.877 112.233 151.623 111.212C151.388 110.182 151.437 109.096 151.768 107.955C152.104 106.8 152.645 105.858 153.392 105.128C154.157 104.388 155.048 103.899 156.064 103.66C157.085 103.406 158.166 103.446 159.306 103.777C160.433 104.105 161.359 104.649 162.085 105.41C162.815 106.157 163.297 107.045 163.532 108.076C163.786 109.097 163.744 110.184 163.408 111.339C163.077 112.48 162.536 113.422 161.785 114.166C161.038 114.896 160.154 115.388 159.134 115.641C158.117 115.88 157.039 115.834 155.898 115.502ZM156.451 113.601C157.183 113.814 157.88 113.833 158.541 113.659C159.203 113.484 159.775 113.147 160.257 112.645C160.752 112.148 161.113 111.512 161.338 110.737C161.563 109.963 161.6 109.233 161.448 108.547C161.314 107.851 161.015 107.252 160.55 106.751C160.085 106.249 159.486 105.892 158.754 105.679C158.021 105.466 157.324 105.446 156.663 105.621C156.001 105.795 155.42 106.138 154.92 106.649C154.424 107.146 154.064 107.782 153.839 108.557C153.614 109.332 153.577 110.062 153.729 110.747C153.881 111.433 154.189 112.027 154.654 112.529C155.119 113.03 155.718 113.388 156.451 113.601Z" fill="black"/>
<rect x="36.333" y="14" width="85" height="46" rx="23" transform="rotate(16.2105 36.333 14)" fill="white"/>
<path d="M50.1682 49.4935C49.2106 49.2151 48.3402 48.794 47.5571 48.2303C46.788 47.6707 46.1113 46.9776 45.5269 46.1509C45.4469 46.0055 45.3972 45.8612 45.3778 45.7181C45.3624 45.5608 45.3751 45.4118 45.4161 45.271C45.5062 44.9612 45.6603 44.7463 45.8784 44.6264C46.1006 44.4925 46.3406 44.4553 46.5982 44.5149C46.8599 44.5605 47.0838 44.7096 47.27 44.9623C47.7346 45.5708 48.2469 46.094 48.8069 46.5317C49.3852 46.9595 50.0334 47.2778 50.7517 47.4866C51.5826 47.7282 52.4114 47.7935 53.2379 47.6824C54.0685 47.5574 54.8444 47.2789 55.5656 46.8471C56.3009 46.4193 56.9361 45.8632 57.4711 45.1787C58.0103 44.4801 58.4109 43.6801 58.6729 42.7788C58.9308 41.8915 59.0175 41.0155 58.9329 40.1509C58.8523 39.2721 58.6163 38.4551 58.225 37.6998C57.8477 36.9486 57.342 36.2975 56.7079 35.7466C56.0738 35.1957 55.3413 34.7995 54.5104 34.5579C53.595 34.2918 52.8278 34.1986 52.209 34.2783C51.5901 34.358 50.9476 34.5454 50.2814 34.8405C49.9846 34.9681 49.6975 34.9839 49.4199 34.8879C49.1605 34.782 48.9568 34.6158 48.8087 34.3895C48.6789 34.1532 48.6528 33.9012 48.7306 33.6336C48.7675 33.5069 48.8123 33.4053 48.865 33.329C48.9218 33.2386 48.9907 33.1594 49.0716 33.0913C49.1566 33.009 49.2677 32.9421 49.405 32.8903C50.3961 32.4759 51.3199 32.2404 52.1763 32.1839C53.0469 32.1315 54.0174 32.2609 55.0877 32.5721C56.2426 32.9079 57.2495 33.4373 58.1084 34.1605C58.9673 34.8837 59.6503 35.7391 60.1575 36.7266C60.6828 37.7041 61.0002 38.7663 61.1098 39.9131C61.2375 41.05 61.1294 42.2099 60.7854 43.3929C60.4374 44.59 59.9027 45.6412 59.1813 46.5465C58.474 47.4559 57.6345 48.1893 56.6629 48.7469C55.7094 49.2945 54.6763 49.6433 53.5635 49.7933C52.4549 49.9292 51.3231 49.8293 50.1682 49.4935ZM52.3581 41.8822C52.0764 41.8004 51.8636 41.6392 51.7197 41.3988C51.5939 41.1484 51.5699 40.8894 51.6477 40.6218C51.7296 40.3402 51.8887 40.1344 52.125 40.0045C52.3754 39.8788 52.6415 39.8568 52.9232 39.9387L60.0424 42.0085L59.4774 43.952L52.3581 41.8822ZM76.8064 57.0317C76.4966 56.9416 76.2647 56.7673 76.1108 56.5087C75.975 56.2402 75.9522 55.9509 76.0423 55.6411L77.7988 49.5993C78.0567 48.712 78.0288 47.9936 77.7151 47.4442C77.4054 46.8807 76.8985 46.4966 76.1943 46.2919C75.462 46.0789 74.7827 46.1564 74.1564 46.5242C73.5443 46.8961 73.1236 47.4764 72.8943 48.265L71.1409 47.7553C71.407 46.8398 71.8376 46.0944 72.4325 45.519C73.0316 44.9294 73.7405 44.5398 74.5594 44.3502C75.3923 44.1647 76.2664 44.205 77.1819 44.4712C77.9846 44.7045 78.6447 45.0874 79.162 45.6196C79.6793 46.1518 80.0066 46.8121 80.144 47.6005C80.2996 48.3789 80.2361 49.2539 79.9536 50.2257L78.1971 56.2676C78.107 56.5774 77.9327 56.8093 77.6741 56.9632C77.4196 57.1031 77.1304 57.1259 76.8064 57.0317ZM62.7158 52.9352C62.406 52.8451 62.1741 52.6708 62.0202 52.4122C61.8844 52.1437 61.8616 51.8544 61.9517 51.5446L64.6847 42.1438C64.7789 41.8199 64.9532 41.588 65.2077 41.4482C65.4763 41.3124 65.7655 41.2896 66.0753 41.3797C66.3993 41.4738 66.6312 41.6482 66.771 41.9027C66.9108 42.1572 66.9337 42.4464 66.8395 42.7703L64.1065 52.1711C64.0164 52.4809 63.8421 52.7128 63.5835 52.8667C63.329 53.0066 63.0398 53.0294 62.7158 52.9352ZM69.7717 54.9865C69.4619 54.8965 69.23 54.7221 69.0761 54.4635C68.9403 54.195 68.9175 53.9058 69.0075 53.5959L70.7641 47.5541C71.022 46.6668 70.9941 45.9485 70.6804 45.399C70.3707 44.8355 69.8638 44.4514 69.1596 44.2467C68.4272 44.0338 67.748 44.1112 67.1217 44.479C66.4955 44.8468 66.0677 45.425 65.8384 46.2137L64.5075 45.8268C64.7737 44.9114 65.1901 44.1618 65.7569 43.5782C66.3278 42.9805 66.9945 42.5786 67.757 42.3726C68.5195 42.1666 69.3162 42.1844 70.1471 42.426C70.9499 42.6594 71.6099 43.0422 72.1273 43.5744C72.6446 44.1067 72.9719 44.767 73.1093 45.5553C73.2648 46.3337 73.2014 47.2088 72.9188 48.1805L71.1623 54.2224C71.0722 54.5322 70.8979 54.7641 70.6393 54.918C70.3848 55.0579 70.0956 55.0807 69.7717 54.9865ZM86.6847 59.9723C85.544 59.6407 84.6087 59.1015 83.8788 58.3547C83.153 57.5938 82.6635 56.7031 82.4104 55.6825C82.1754 54.6519 82.2237 53.5663 82.5554 52.4255C82.8911 51.2707 83.4324 50.3283 84.1792 49.5984C84.9441 48.8586 85.8349 48.3691 86.8514 48.13C87.8719 47.8769 88.9526 47.9161 90.0934 48.2478C91.2201 48.5753 92.1463 49.1195 92.8721 49.8804C93.6019 50.6272 94.0844 51.5159 94.3193 52.5464C94.5725 53.567 94.5312 54.6547 94.1955 55.8096C93.8638 56.9503 93.3225 57.8927 92.5717 58.6367C91.8249 59.3665 90.9412 59.8581 89.9206 60.1112C88.9041 60.3503 87.8255 60.304 86.6847 59.9723ZM87.2375 58.0711C87.9698 58.284 88.6668 58.3033 89.3284 58.1291C89.99 57.9549 90.5617 57.617 91.0435 57.1156C91.5394 56.6183 91.9 55.9823 92.1252 55.2077C92.3504 54.4331 92.387 53.703 92.235 53.0173C92.1013 52.3216 91.8018 51.7229 91.3368 51.2211C90.8717 50.7193 90.273 50.362 89.5406 50.1491C88.8083 49.9361 88.1113 49.9168 87.4497 50.091C86.7881 50.2653 86.2073 50.6081 85.7073 51.1195C85.2114 51.6168 84.8509 52.2528 84.6257 53.0274C84.4005 53.802 84.3639 54.5321 84.5158 55.2178C84.6678 55.9035 84.9763 56.4972 85.4414 56.999C85.9064 57.5008 86.5051 57.8581 87.2375 58.0711Z" fill="black"/>
</g>
<defs>
<filter id="filter0_d_208_9439" x="0" y="0" width="214.693" height="155.44" filterUnits="userSpaceOnUse" color-interpolation-filters="sRGB">
<feFlood flood-opacity="0" result="BackgroundImageFix"/>
<feColorMatrix in="SourceAlpha" type="matrix" values="0 0 0 0 0 0 0 0 0 0 0 0 0 0 0 0 0 0 127 0" result="hardAlpha"/>
<feOffset dx="2" dy="2"/>
<feGaussianBlur stdDeviation="8"/>
<feComposite in2="hardAlpha" operator="out"/>
<feColorMatrix type="matrix" values="0 0 0 0 0 0 0 0 0 0 0 0 0 0 0 0 0 0 0.04 0"/>
<feBlend mode="normal" in2="BackgroundImageFix" result="effect1_dropShadow_208_9439"/>
<feBlend mode="normal" in="SourceGraphic" in2="effect1_dropShadow_208_9439" result="shape"/>
</filter>
</defs>
</svg>
