<svg>
 <symbol id="icon-logo" width="176" height="44" viewBox="0 0 176 44" fill="none" xmlns="http://www.w3.org/2000/svg">
<g id="logo" clip-path="url(#clip0_223_9716)">
<path id="logo_elements" fill-rule="evenodd" clip-rule="evenodd" d="M11.8603 11.2747C15.4923 13.5337 16.6004 18.2756 14.3432 21.8778C12.0655 25.4801 7.28435 26.579 3.65231 24.3404C0.0202762 22.061 -1.0878 17.3191 1.1694 13.7169C3.44711 10.1147 8.22827 9.01567 11.8603 11.2747Z" fill="#CDE1A4"/>
<path id="logo_elements_2" fill-rule="evenodd" clip-rule="evenodd" d="M33.1191 25.4801C37.613 28.2682 38.9878 34.1295 36.1766 38.5864C33.3653 43.0434 27.4556 44.407 22.9617 41.6188C18.4678 38.851 17.1135 32.9694 19.9042 28.5124C22.6949 24.0555 28.6252 22.7123 33.1191 25.4801Z" fill="#F5B1B2"/>
<path id="logo_elements_3" fill-rule="evenodd" clip-rule="evenodd" d="M33.3447 1.16004C36.9767 3.41906 38.0848 8.16096 35.8276 11.7632C33.5499 15.3654 28.7687 16.4644 25.1367 14.2257C21.5047 11.987 20.3966 7.22479 22.6538 3.62257C24.9315 0.0203539 29.7126 -1.07863 33.3447 1.16004Z" fill="#B1A5CD"/>
<path id="logo_elements_4" fill-rule="evenodd" clip-rule="evenodd" d="M32.6063 16.0777C32.0587 16.2088 31.4938 16.2709 30.9275 16.28L29.7819 24.3843C31.4558 24.4437 33.1366 24.9252 34.6583 25.8667C39.2958 28.7363 40.7117 34.8011 37.8184 39.4005C35.9305 42.3718 32.7089 44 29.4052 44C27.6199 44 25.8142 43.5115 24.1726 42.5143C21.9359 41.1304 20.3764 38.9528 19.7608 36.4088C19.1657 33.8445 19.6171 31.2192 21.0125 29.0009C21.1326 28.81 21.2582 28.6246 21.3891 28.4447L15.3839 23.6721C13.8192 25.4293 11.5897 26.3755 9.31611 26.3755C7.85919 26.3755 6.38175 25.9889 5.06847 25.1748C1.29279 22.8344 0.143669 17.9093 2.50347 14.1646C4.86327 10.4199 9.82911 9.28025 13.6048 11.6207C14.8764 12.4089 15.85 13.4903 16.4921 14.721L23.483 11.631C22.3857 9.26846 22.4723 6.4223 23.9674 4.04992C26.3271 0.305235 31.293 -0.83445 35.0687 1.50598C38.8443 3.8464 39.9935 8.77147 37.6337 12.5162C36.4845 14.3274 34.7198 15.5892 32.6063 16.0777ZM24.1334 11.5747C23.0222 9.3547 23.0621 6.63149 24.4804 4.37554C26.6555 0.915781 31.2725 -0.142498 34.7403 2.03511C38.2287 4.19238 39.2958 8.75112 37.1207 12.2109C36.0741 13.8797 34.412 15.0397 32.4831 15.4875C31.9055 15.6216 31.3205 15.6845 30.7391 15.6789C30.7257 15.6752 30.712 15.6724 30.6979 15.6706C30.6629 15.6663 30.6278 15.6684 30.5941 15.6761C29.2842 15.6379 27.9975 15.2525 26.8607 14.5513C25.6987 13.8327 24.8053 12.8477 24.211 11.7255C24.2071 11.7043 24.2012 11.6828 24.1931 11.6614C24.1763 11.6282 24.1562 11.5993 24.1334 11.5747ZM23.7665 12.1837L16.7506 15.2658C17.7449 17.5843 17.6195 20.3303 16.1698 22.6309C16.0441 22.8287 15.9111 23.0192 15.7714 23.2022L21.7625 27.9636C23.6238 25.7124 26.3504 24.4582 29.1552 24.3818L30.3021 16.2673C28.9731 16.1897 27.6872 15.7873 26.5323 15.0601C25.3385 14.32 24.4072 13.3216 23.7665 12.1837ZM29.4269 24.9916C31.1092 24.9919 32.8118 25.4396 34.3094 26.4162C38.6392 29.1026 39.973 34.7807 37.2643 39.0952C34.5557 43.3894 28.8306 44.7123 24.4804 42.0259C22.3873 40.7234 20.9099 38.6882 20.3558 36.2867C19.8018 33.8852 20.2122 31.4227 21.5255 29.3265C23.2887 26.5203 26.3222 24.9941 29.418 24.9916L29.4269 24.9916ZM2.99595 14.4699C4.41183 12.2312 6.85371 10.9898 9.33663 10.9898C10.6909 10.9898 12.0453 11.3561 13.2559 12.1091C16.7443 14.2664 17.8114 18.8251 15.6363 22.2849C13.4611 25.7446 8.86467 26.8029 5.37627 24.6457C1.88787 22.4884 0.820829 17.9297 2.99595 14.4699Z" fill="#302A3E"/>
<g id="logo_elements_5">
<path d="M52.0588 29.1434C52.2229 29.3265 52.4692 29.4079 52.7359 29.4079C53.0232 29.4079 53.2489 29.3062 53.4541 29.1841C53.6388 29.0009 53.7209 28.777 53.7209 28.5125V13.9408L65.3967 29.123C65.5404 29.3265 65.7661 29.4283 66.0944 29.4283C66.3612 29.4283 66.5869 29.3265 66.7716 29.1434C66.9563 28.9602 67.0383 28.7363 67.0383 28.4718V11.4579C67.0383 11.1933 66.9563 10.9695 66.7716 10.7863C66.6074 10.6031 66.3612 10.5217 66.0944 10.5217C65.8277 10.5217 65.6019 10.6031 65.4173 10.7863C65.2326 10.9491 65.13 11.1933 65.13 11.4579V26.0499L53.4746 10.8677C53.29 10.6235 53.0232 10.5217 52.7359 10.5217C52.4692 10.5217 52.2434 10.6031 52.0588 10.7863C51.8741 10.9491 51.792 11.1933 51.792 11.4579V28.4718C51.792 28.7363 51.8741 28.9602 52.0588 29.1434Z" fill="#302A3E"/>
<path d="M102.435 29.123C102.62 29.3062 102.846 29.4079 103.113 29.4079C103.379 29.4079 103.605 29.3062 103.79 29.123C103.974 28.9399 104.056 28.716 104.056 28.4514V20.84H109.761C110.028 20.84 110.253 20.7585 110.438 20.5754C110.623 20.3922 110.705 20.1887 110.705 19.9241C110.705 19.6392 110.602 19.4153 110.438 19.2525C110.274 19.0897 110.028 19.0083 109.761 19.0083H104.056V12.333H113.331C113.598 12.333 113.824 12.2516 114.009 12.0888C114.193 11.9056 114.275 11.7021 114.275 11.4375C114.275 11.173 114.193 10.9695 114.009 10.7863C113.844 10.6031 113.598 10.5217 113.331 10.5217H103.113C102.846 10.5217 102.62 10.6031 102.435 10.7863C102.251 10.9491 102.148 11.1933 102.148 11.4579V28.4514C102.148 28.716 102.251 28.9399 102.435 29.123Z" fill="#302A3E"/>
<path d="M152.607 14.2461C152.853 14.5106 153.181 14.6327 153.551 14.6327C153.941 14.6327 154.248 14.5106 154.495 14.2461C154.761 13.9815 154.884 13.6559 154.884 13.2895C154.884 12.8825 154.761 12.5772 154.495 12.333C154.248 12.0888 153.941 11.9667 153.571 11.9667C153.181 11.9667 152.873 12.0888 152.607 12.333C152.34 12.5772 152.217 12.9029 152.217 13.2895C152.217 13.6762 152.36 13.9815 152.607 14.2461Z" fill="#302A3E"/>
<path fill-rule="evenodd" clip-rule="evenodd" d="M116.533 16.9325C117.559 16.3423 118.708 16.0573 119.98 16.0573C121.252 16.0573 122.401 16.3423 123.407 16.9325C124.433 17.5023 125.254 18.3164 125.849 19.3543C126.444 20.3922 126.731 21.5319 126.731 22.7937V28.4514C126.731 28.716 126.649 28.9195 126.464 29.1027C126.3 29.2858 126.054 29.3672 125.787 29.3672C125.52 29.3672 125.295 29.2858 125.11 29.123C124.925 28.9399 124.843 28.716 124.843 28.4514V27.0065C124.269 27.7798 123.55 28.3904 122.668 28.8381C121.806 29.2858 120.842 29.5097 119.775 29.5097C118.544 29.5097 117.435 29.2248 116.43 28.6346C115.445 28.0444 114.645 27.2303 114.07 26.2128C113.496 25.1952 113.208 24.0555 113.208 22.7937C113.208 21.5319 113.496 20.3719 114.091 19.3543C114.686 18.3367 115.507 17.5227 116.533 16.9325ZM117.456 27.1693C118.215 27.5967 119.057 27.8205 119.98 27.8205C120.903 27.8205 121.745 27.617 122.483 27.1693C123.222 26.7215 123.817 26.1313 124.248 25.358C124.659 24.5846 124.884 23.7299 124.884 22.7733C124.884 21.8168 124.679 20.9621 124.248 20.1887C123.817 19.4357 123.222 18.8252 122.483 18.3774C121.745 17.9297 120.903 17.7058 119.98 17.7058C119.057 17.7058 118.215 17.9297 117.456 18.3774C116.697 18.8252 116.102 19.4153 115.671 20.1887C115.219 20.9621 115.014 21.8168 115.014 22.7733C115.014 23.7299 115.24 24.5846 115.671 25.358C116.102 26.1313 116.697 26.7419 117.456 27.1693Z" fill="#302A3E"/>
<path d="M146.676 16.6882C145.938 16.2405 145.096 16.0166 144.132 16.0166C143.188 16.0166 142.347 16.2202 141.588 16.6272C140.828 17.0342 140.213 17.5837 139.741 18.3164C139.33 17.6041 138.756 17.0342 138.038 16.6272C137.319 16.2202 136.519 16.0166 135.616 16.0166C134.898 16.0166 134.2 16.1591 133.585 16.444C132.969 16.7289 132.415 17.136 131.964 17.6448V17.1156C131.964 16.8511 131.882 16.6272 131.717 16.444C131.533 16.2609 131.307 16.1795 131.04 16.1795C130.773 16.1795 130.548 16.2609 130.363 16.444C130.178 16.6068 130.096 16.8511 130.096 17.1156V28.4921C130.096 28.777 130.178 29.0009 130.363 29.1637C130.527 29.3265 130.773 29.4079 131.04 29.4079C131.328 29.4079 131.553 29.3265 131.717 29.1637C131.882 28.9806 131.964 28.7567 131.964 28.4921V21.3487C131.964 20.3108 132.292 19.456 132.949 18.8048C133.585 18.1332 134.426 17.8076 135.432 17.8076C136.396 17.8076 137.176 18.1332 137.771 18.8048C138.366 19.4764 138.653 20.3922 138.653 21.5319V28.4921C138.653 28.777 138.735 29.0009 138.92 29.1637C139.084 29.3265 139.33 29.4079 139.597 29.4079C139.884 29.4079 140.11 29.3265 140.274 29.1637C140.438 28.9806 140.52 28.7567 140.52 28.4921V21.4912C140.52 20.3922 140.808 19.4968 141.444 18.8252C142.08 18.1536 142.901 17.8076 143.927 17.8076C144.891 17.8076 145.671 18.1332 146.266 18.8048C146.861 19.4764 147.148 20.3922 147.148 21.5319V28.4921C147.148 28.777 147.23 29.0009 147.415 29.1637C147.579 29.3265 147.826 29.4079 148.092 29.4079C148.38 29.4079 148.605 29.3265 148.769 29.1637C148.934 28.9806 149.016 28.7567 149.016 28.4921V21.4912C149.016 20.3922 148.811 19.4357 148.4 18.6013C147.99 17.7872 147.415 17.136 146.676 16.6882Z" fill="#302A3E"/>
<path d="M152.976 29.1434C153.14 29.3265 153.386 29.4079 153.653 29.4079C153.941 29.4079 154.166 29.3062 154.33 29.123C154.495 28.9602 154.577 28.716 154.577 28.4514V17.1156C154.577 16.8511 154.495 16.6272 154.33 16.444C154.146 16.2609 153.92 16.1795 153.653 16.1795C153.386 16.1795 153.161 16.2609 152.976 16.444C152.791 16.6068 152.709 16.8511 152.709 17.1156V28.4718C152.709 28.7363 152.791 28.9602 152.976 29.1434Z" fill="#302A3E"/>
<path d="M159.276 28.2276C159.891 29.0213 160.712 29.4079 161.697 29.4079H162.025C162.354 29.4079 162.62 29.3265 162.826 29.1637C163.031 28.9806 163.133 28.7567 163.133 28.4921C163.133 28.2072 163.051 27.9833 162.908 27.8205C162.744 27.6577 162.559 27.5763 162.313 27.5763H161.697C161.266 27.5763 160.897 27.3524 160.61 26.9251C160.322 26.4977 160.179 25.9278 160.179 25.2359V11.4375C160.179 11.1526 160.097 10.9288 159.932 10.7659C159.748 10.6031 159.522 10.5217 159.255 10.5217C158.988 10.5217 158.783 10.6031 158.599 10.7659C158.414 10.9491 158.332 11.173 158.332 11.4375V25.2155C158.332 26.4366 158.64 27.4542 159.276 28.2276Z" fill="#302A3E"/>
<path d="M176 16.9325C176 16.6272 175.815 16.383 175.445 16.2405C175.281 16.1795 175.138 16.1387 175.035 16.1591C174.707 16.1591 174.461 16.3423 174.296 16.6882L169.761 26.5994L165.001 16.6475C164.837 16.3219 164.611 16.1388 164.262 16.1388C164.098 16.1388 163.954 16.1795 163.831 16.2405C163.482 16.4033 163.298 16.6272 163.298 16.9732C163.298 17.136 163.339 17.2784 163.4 17.4005L168.838 28.5735V28.5939L166.417 33.8853C166.355 34.0277 166.314 34.1702 166.314 34.3127C166.314 34.6586 166.499 34.8825 166.868 35.0453C166.991 35.1064 167.135 35.1471 167.299 35.1471C167.607 35.1471 167.833 34.9639 167.997 34.5976L175.897 17.3598C175.958 17.2174 176 17.0749 176 16.9325Z" fill="#302A3E"/>
<path fill-rule="evenodd" clip-rule="evenodd" d="M76.6212 16.0573C77.8319 16.0573 78.8989 16.3423 79.8223 16.8918C80.7457 17.4412 81.4639 18.2146 81.9769 19.2118C82.4899 20.1887 82.7361 21.308 82.7361 22.5698C82.7361 22.8344 82.6541 23.0379 82.4899 23.1804C82.3257 23.3432 82.1205 23.4042 81.8538 23.4042H72.0042C72.1273 24.7271 72.6608 25.8057 73.5637 26.6198C74.4666 27.4338 75.6157 27.8612 76.97 27.8612C77.5651 27.8612 78.1397 27.7595 78.7347 27.556C79.3298 27.3524 79.8018 27.0879 80.1711 26.8029C80.3763 26.6401 80.6021 26.5587 80.8278 26.5587C81.0125 26.5587 81.1971 26.6198 81.3613 26.7622C81.587 26.9454 81.6691 27.1693 81.6691 27.4135C81.6691 27.617 81.587 27.8205 81.4023 27.963C80.8688 28.4107 80.1917 28.7974 79.3503 29.0823C78.5295 29.3876 77.7293 29.5301 76.97 29.5301C75.6773 29.5301 74.5076 29.2451 73.4816 28.6753C72.4556 28.1054 71.6553 27.3117 71.0808 26.2738C70.5062 25.2562 70.219 24.0962 70.219 22.7937C70.219 21.4912 70.4857 20.3312 71.0398 19.2932C71.5938 18.2757 72.3325 17.4616 73.3175 16.8918C74.2819 16.3423 75.39 16.0573 76.6212 16.0573ZM76.6212 17.7262C75.39 17.7262 74.364 18.1128 73.5432 18.8658C72.7224 19.6189 72.2299 20.6161 72.0452 21.8575H80.9714C80.8483 20.6161 80.3763 19.6189 79.5966 18.8658C78.8373 18.0925 77.8319 17.7262 76.6212 17.7262Z" fill="#302A3E"/>
<path fill-rule="evenodd" clip-rule="evenodd" d="M88.0508 28.6549C89.0768 29.2451 90.226 29.5301 91.5187 29.5301C92.8115 29.5301 93.9606 29.2248 94.9866 28.6549C96.0126 28.0851 96.8129 27.271 97.408 26.2535C98.003 25.2359 98.2903 24.0962 98.2903 22.814C98.2903 21.5319 98.003 20.3922 97.408 19.3543C96.8129 18.3164 96.0126 17.5023 94.9866 16.9325C93.9606 16.3423 92.8115 16.0573 91.5187 16.0573C90.2465 16.0573 89.0768 16.3423 88.0508 16.9325C87.0248 17.5226 86.2246 18.3164 85.6295 19.3543C85.0344 20.3922 84.7471 21.5319 84.7471 22.814C84.7471 24.0758 85.0549 25.2359 85.6295 26.2535C86.204 27.271 87.0248 28.0647 88.0508 28.6549ZM94.0632 27.1693C93.3039 27.5967 92.4626 27.8205 91.5187 27.8205C90.5953 27.8205 89.754 27.617 88.9948 27.1693C88.2355 26.7215 87.6404 26.1313 87.2095 25.358C86.7786 24.5846 86.5734 23.7299 86.5734 22.7733C86.5734 21.7965 86.7786 20.9417 87.2095 20.1683C87.6404 19.395 88.2355 18.7844 88.9948 18.3571C89.754 17.9297 90.5953 17.7058 91.5187 17.7058C92.4626 17.7058 93.3245 17.9297 94.0632 18.3571C94.8224 18.8048 95.397 19.395 95.8279 20.1683C96.2588 20.9417 96.464 21.7965 96.464 22.7733C96.464 23.7299 96.2588 24.5846 95.8279 25.358C95.397 26.1313 94.8019 26.7419 94.0632 27.1693Z" fill="#302A3E"/>
</g>
</g>
<defs>
<clipPath id="clip0_223_9716">
<rect width="176" height="44" fill="white"/>
</clipPath>
</defs>
</symbol>

<symbol id="icon-tg" width="56" height="56" viewBox="0 0 56 56" fill="none" xmlns="http://www.w3.org/2000/svg">
<path d="M24.0003 30V37.3333L28.3323 32.964M40.0003 18.6666L14.667 28.6666L24.0003 30L40.0003 18.6666ZM40.0003 18.6666L36.667 38.6666L24.0003 30L40.0003 18.6666ZM40.0003 18.6666L24.0003 30L40.0003 18.6666Z" stroke="#302A3E" stroke-width="2" stroke-linecap="round" stroke-linejoin="round"/>
<rect x="1" y="1" width="54" height="54" rx="27" stroke="#302A3E" stroke-width="2"/>
</symbol>

<symbol id="icon-VK" width="56" height="56" viewBox="0 0 56 56" fill="none" xmlns="http://www.w3.org/2000/svg">
<path d="M40.7723 21.14C40.959 20.52 40.7723 20.0653 39.8897 20.0653H36.9657C36.2217 20.0653 35.8817 20.4586 35.695 20.8906C35.695 20.8906 34.2083 24.516 32.1017 26.8666C31.4217 27.5506 31.111 27.7666 30.7403 27.7666C30.555 27.7666 30.2857 27.5506 30.2857 26.9306V21.14C30.2857 20.396 30.071 20.0653 29.451 20.0653H24.8563C24.3923 20.0653 24.1123 20.4093 24.1123 20.7373C24.1123 21.4413 25.1657 21.604 25.2737 23.588V27.892C25.2737 28.8346 25.1043 29.0066 24.731 29.0066C23.7403 29.0066 21.3297 25.368 19.899 21.2026C19.6203 20.3933 19.339 20.0666 18.5923 20.0666H15.6697C14.8337 20.0666 14.667 20.46 14.667 20.892C14.667 21.668 15.6577 25.508 19.2817 30.5866C21.6977 34.0546 25.099 35.9346 28.1977 35.9346C30.055 35.9346 30.2843 35.5173 30.2843 34.7973V32.176C30.2843 31.3413 30.4617 31.1733 31.0497 31.1733C31.4817 31.1733 32.2257 31.392 33.9603 33.0626C35.9417 35.044 36.2697 35.9333 37.383 35.9333H40.3057C41.1403 35.9333 41.5577 35.516 41.3177 34.692C41.055 33.872 40.1083 32.6786 38.8523 31.2666C38.1697 30.4613 37.1497 29.5946 36.839 29.1613C36.4057 28.6026 36.531 28.356 36.839 27.86C36.8403 27.8613 40.4017 22.8453 40.7723 21.14V21.14Z" stroke="#302A3E" stroke-width="2"/>
<rect x="1" y="1" width="54" height="54" rx="27" stroke="#302A3E" stroke-width="2"/>
</symbol>

<symbol id="icon-tube" width="56" height="56" viewBox="0 0 56 56" fill="none" xmlns="http://www.w3.org/2000/svg">
<path d="M42.0538 20.56C41.8954 19.9273 41.5728 19.3475 41.1186 18.8792C40.6645 18.411 40.0948 18.071 39.4671 17.8934C37.1738 17.3334 28.0004 17.3334 28.0004 17.3334C28.0004 17.3334 18.8271 17.3334 16.5338 17.9467C15.9061 18.1243 15.3364 18.4644 14.8822 18.9326C14.4281 19.4008 14.1055 19.9806 13.9471 20.6134C13.5274 22.9408 13.3221 25.3018 13.3338 27.6667C13.3188 30.0494 13.5241 32.4284 13.9471 34.7734C14.1217 35.3865 14.4515 35.9442 14.9046 36.3927C15.3577 36.8411 15.9189 37.1651 16.5338 37.3334C18.8271 37.9467 28.0004 37.9467 28.0004 37.9467C28.0004 37.9467 37.1738 37.9467 39.4671 37.3334C40.0948 37.1558 40.6645 36.8157 41.1186 36.3475C41.5728 35.8793 41.8954 35.2995 42.0538 34.6667C42.4702 32.3568 42.6755 30.0138 42.6671 27.6667C42.6821 25.284 42.4767 22.905 42.0538 20.56V20.56Z" stroke="#302A3E" stroke-width="2" stroke-linecap="round" stroke-linejoin="round"/>
<path d="M25 32.0266L32.6667 27.6666L25 23.3066V32.0266Z" stroke="#302A3E" stroke-width="2" stroke-linecap="round" stroke-linejoin="round"/>
<rect x="1" y="1" width="54" height="54" rx="27" stroke="#302A3E" stroke-width="2"/>
</symbol>

<symbol id="curl-bog" width="55" height="47" viewBox="0 0 55 47" fill="none" xmlns="http://www.w3.org/2000/svg">
<path id="curl bog" d="M1.79089 45.3944C1.79089 45.3944 16.6793 43.4572 24.6215 27.3225C32.5637 11.1879 19.666 -2.17746 13.1769 2.13274C6.68783 6.44295 9.83888 26.6707 30.3068 24.5666C48.7353 22.6721 53.1765 2.96868 53.1765 2.96868" stroke="#302A3E" stroke-width="2" stroke-linecap="round"/>
</symbol>

<symbol id="comp" xmlns="http://www.w3.org/2000/svg" width="212" height="189" viewBox="0 0 212 189" fill="none">
<path d="M130.521 162.651C131.478 162.942 131.478 162.941 131.479 162.941L131.479 162.938L131.483 162.925L131.498 162.875L131.558 162.679L131.79 161.915L132.673 159.01C133.433 156.506 134.521 152.927 135.83 148.624C138.448 140.019 141.95 128.52 145.484 116.946C149.018 105.372 152.586 93.7245 155.335 84.8213C156.709 80.3694 157.879 76.6052 158.738 73.88C159.168 72.5171 159.519 71.4163 159.778 70.6203C159.908 70.2219 160.014 69.9029 160.095 69.6669C160.136 69.5487 160.169 69.4544 160.195 69.3828C160.208 69.3471 160.219 69.319 160.227 69.2978L160.237 69.2736C160.239 69.2677 160.24 69.2655 160.24 69.2662C160.944 67.6691 160.458 66.026 159.945 64.9356C159.679 64.3696 159.379 63.8933 159.147 63.5595C159.03 63.3915 158.929 63.257 158.855 63.1625C158.828 63.1286 158.805 63.0997 158.786 63.0762C158.778 63.0668 158.771 63.0583 158.765 63.0507L158.738 63.0183L158.73 63.0082L158.727 63.0048L158.726 63.0034L158.725 63.0029C158.725 63.0026 158.725 63.0024 157.965 63.6529L158.725 63.0024L158.595 62.8503L158.416 62.7601L52.4669 9.29022L52.2762 9.19402L52.0629 9.18406L49.3032 9.05524L48.8739 9.0352L48.564 9.33285L45.7281 12.056L45.549 12.228L45.4712 12.4638L19.1337 92.2332L19.1201 92.2746L19.1101 92.3169C18.1665 96.3118 17.978 98.7178 18.0495 100.166C18.0855 100.893 18.1879 101.399 18.3059 101.752C18.3652 101.929 18.4292 102.07 18.4919 102.182C18.5233 102.238 18.5543 102.287 18.5841 102.329C18.599 102.35 18.6136 102.369 18.6277 102.386C18.6347 102.395 18.6417 102.404 18.6485 102.412L18.6586 102.423L18.6636 102.429L18.666 102.432C18.6672 102.433 18.6685 102.434 19.4116 101.765M130.521 162.651C131.241 163.346 131.24 163.346 131.24 163.346L131.239 163.347L131.238 163.349L131.233 163.354L131.219 163.368C131.208 163.379 131.192 163.395 131.173 163.413C131.135 163.451 131.081 163.502 131.012 163.565C130.876 163.69 130.68 163.86 130.434 164.05C129.946 164.427 129.24 164.9 128.388 165.25C127.536 165.6 126.501 165.843 125.381 165.707C124.245 165.57 123.096 165.053 122.027 164.007C121.877 163.86 121.36 163.477 120.403 162.838C119.482 162.223 118.232 161.422 116.697 160.459C113.627 158.535 109.439 155.98 104.511 153.012C94.6564 147.078 81.8609 139.502 69.178 132.037C56.4956 124.573 43.9284 117.221 34.5315 111.735C29.8331 108.992 25.9274 106.716 23.1963 105.125C21.8308 104.33 20.7589 103.706 20.0285 103.281L19.1948 102.796L18.9812 102.672L18.9272 102.64L18.9136 102.633L18.9102 102.631C18.9094 102.63 18.9091 102.63 19.4116 101.765M130.521 162.651L131.478 162.942L131.408 163.172L131.241 163.346L130.521 162.651ZM19.4116 101.765L18.9091 102.63L18.7734 102.551L18.6685 102.434L19.4116 101.765Z" fill="#F5B1B2" stroke="#302A3E" stroke-width="2"/>
<path d="M131.156 163.5L177.982 140.711C179.679 139.874 179.767 137.505 178.125 136.601L146.161 117.758" stroke="#302A3E" stroke-width="2" stroke-miterlimit="10" stroke-linecap="round" stroke-linejoin="round"/>
<path d="M143.651 125.932L164.835 138.989L134.657 152.5" stroke="#302A3E" stroke-width="2" stroke-miterlimit="10" stroke-linecap="round" stroke-linejoin="round"/>
<path d="M44.8906 17.4989L157.722 74.6004" stroke="#302A3E" stroke-width="2" stroke-miterlimit="10" stroke-linecap="round" stroke-linejoin="round"/>
</symbol>
<symbol id="play" width="48" height="48" viewBox="0 0 48 48" fill="none" xmlns="http://www.w3.org/2000/svg">
<g id="image">
<circle id="Ellipse 84" cx="24" cy="24" r="23" fill="#CDE1A4" stroke="#302A3E" stroke-width="2"/>
<path id="Polygon 1" d="M33 23.134C33.6667 23.5189 33.6667 24.4811 33 24.866L20.25 32.2272C19.5833 32.6121 18.75 32.131 18.75 31.3612L18.75 16.6388C18.75 15.869 19.5833 15.3879 20.25 15.7728L33 23.134Z" stroke="#302A3E" stroke-width="2"/>
</g>
</symbol>
<symbol id="electro" width="31" height="38" viewBox="0 0 31 38" fill="none" xmlns="http://www.w3.org/2000/svg">
<path id="Vector" d="M8.53663 28.663L8.53079 28.6334L8.52327 28.6042L1.59839 1.7412C1.59827 1.74073 1.59815 1.74026 1.59803 1.7398C1.57212 1.63638 1.5864 1.55881 1.61462 1.49698C1.64716 1.42568 1.70361 1.36608 1.76445 1.33189C1.82434 1.29824 1.85675 1.30508 1.85812 1.30541L1.85822 1.30544C1.8594 1.30571 1.86612 1.30725 1.87974 1.31782C1.89453 1.32928 1.9273 1.35922 1.96784 1.42695L2.00608 1.49085L2.05301 1.54817L11.5763 13.1798L11.5816 13.1862L11.5869 13.1925C12.4263 14.1838 13.9108 14.2881 14.8745 13.4093L22.3312 6.60953C22.6156 6.35018 22.8967 6.53377 22.9381 6.74385L22.938 6.74387L22.9408 6.75705L29.0409 35.7315L29.0453 35.7524L29.0506 35.7731C29.0781 35.8817 29.0598 35.9402 29.0434 35.9744C29.0217 36.0195 28.9758 36.0733 28.9008 36.1128C28.8257 36.1523 28.7465 36.1639 28.6817 36.1536C28.6266 36.1449 28.562 36.1185 28.4933 36.0373L18.1387 23.8094C17.2993 22.8181 15.8148 22.7138 14.8511 23.5926L9.14353 28.7974C9.06138 28.8723 8.91666 28.9141 8.75645 28.8662C8.60344 28.8205 8.55021 28.7319 8.53663 28.663Z" stroke="#302A3E" stroke-width="2"/>
</symbol>
<symbol id="zakoryka" xmlns="http://www.w3.org/2000/svg" width="118" height="52" viewBox="0 0 118 52" fill="none">
<path d="M117.176 51.0145C117.72 50.9178 118.082 50.3985 117.986 49.8548C117.889 49.311 117.37 48.9487 116.826 49.0454L117.176 51.0145ZM3.14367 0.0401983C2.59715 -0.0393803 2.0896 0.339151 2.01002 0.885674L0.713215 9.79176C0.633636 10.3383 1.01218 10.8458 1.55869 10.9254C2.10521 11.005 2.61277 10.6265 2.69234 10.0799L3.84506 2.16342L11.7616 3.31613C12.3081 3.39571 12.8157 3.01718 12.8952 2.47065C12.9748 1.92413 12.5963 1.41658 12.0498 1.337L3.14367 0.0401983ZM73.9993 28.0296L74.8226 28.5971L73.9993 28.0296ZM61.4969 16.5296L61.8683 17.4581L61.4969 16.5296ZM73.1759 27.462C66.4098 37.2777 59.2648 40.9807 52.3142 41.1058C45.2913 41.2323 38.2089 37.7159 31.6007 32.5292C18.3748 22.1481 7.62827 5.56344 3.8012 0.431921L2.19797 1.6276C5.9007 6.5924 16.8676 23.5076 30.3659 34.1024C37.1198 39.4036 44.6522 43.2441 52.3502 43.1055C60.1205 42.9656 67.8024 38.7814 74.8226 28.5971L73.1759 27.462ZM116.826 49.0454C99.0472 52.2085 79.8038 46.1775 67.8031 38.2337C61.7754 34.2436 57.7607 29.893 56.5439 26.1561C55.9489 24.3286 56.0375 22.7042 56.8143 21.3014C57.6038 19.8758 59.1856 18.5313 61.8683 17.4581L61.1255 15.6012C58.1841 16.7779 56.1521 18.3689 55.0647 20.3325C53.9647 22.3189 53.9135 24.5375 54.6422 26.7753C56.0727 31.1687 60.5593 35.8371 66.6992 39.9014C79.0337 48.0663 98.7908 54.2855 117.176 51.0145L116.826 49.0454ZM61.8683 17.4581C63.1403 16.9492 64.8381 16.831 66.628 17.1147C68.4091 17.3969 70.1936 18.0639 71.6156 19.0274C73.0417 19.9936 74.0335 21.2071 74.3866 22.5639C74.7314 23.889 74.512 25.5239 73.1759 27.462L74.8226 28.5971C76.4162 26.2853 76.8425 24.0601 76.3221 22.0602C75.81 20.092 74.4256 18.5154 72.7375 17.3716C71.0453 16.2251 68.9775 15.462 66.941 15.1393C64.9134 14.818 62.8285 14.9199 61.1255 15.6012L61.8683 17.4581Z" fill="black"/>
</symbol>
<symbol id="three" xmlns="http://www.w3.org/2000/svg" width="28" height="28" viewBox="0 0 28 28" fill="none">
<path d="M13.3352 15.9247C14.4325 16.0515 15.4248 15.2648 15.5516 14.1675C15.6784 13.0702 14.8917 12.0779 13.7944 11.9511C12.6971 11.8243 11.7048 12.6111 11.578 13.7083C11.4512 14.8056 12.2379 15.7979 13.3352 15.9247Z" fill="#302A3E"/>
<path d="M14.0237 9.96435C15.1209 10.0912 16.1133 9.30444 16.2401 8.20717C16.3669 7.1099 15.5801 6.1176 14.4829 5.9908C13.3856 5.86399 12.3933 6.65071 12.2665 7.74798C12.1397 8.84524 12.9264 9.83755 14.0237 9.96435Z" fill="#302A3E"/>
<path d="M12.6458 21.885C13.743 22.0118 14.7353 21.2251 14.8621 20.1278C14.9889 19.0306 14.2022 18.0383 13.1049 17.9115C12.0077 17.7847 11.0154 18.5714 10.8886 19.6686C10.7618 20.7659 11.5485 21.7582 12.6458 21.885Z" fill="#302A3E"/>
</symbol>
</svg>