<svg>
 <symbol id="icon-logo" width="176" height="44" viewBox="0 0 176 44" fill="none" xmlns="http://www.w3.org/2000/svg">
<g id="logo" clip-path="url(#clip0_223_9716)">
<path id="logo_elements" fill-rule="evenodd" clip-rule="evenodd" d="M11.8603 11.2747C15.4923 13.5337 16.6004 18.2756 14.3432 21.8778C12.0655 25.4801 7.28435 26.579 3.65231 24.3404C0.0202762 22.061 -1.0878 17.3191 1.1694 13.7169C3.44711 10.1147 8.22827 9.01567 11.8603 11.2747Z" fill="#CDE1A4"/>
<path id="logo_elements_2" fill-rule="evenodd" clip-rule="evenodd" d="M33.1191 25.4801C37.613 28.2682 38.9878 34.1295 36.1766 38.5864C33.3653 43.0434 27.4556 44.407 22.9617 41.6188C18.4678 38.851 17.1135 32.9694 19.9042 28.5124C22.6949 24.0555 28.6252 22.7123 33.1191 25.4801Z" fill="#F5B1B2"/>
<path id="logo_elements_3" fill-rule="evenodd" clip-rule="evenodd" d="M33.3447 1.16004C36.9767 3.41906 38.0848 8.16096 35.8276 11.7632C33.5499 15.3654 28.7687 16.4644 25.1367 14.2257C21.5047 11.987 20.3966 7.22479 22.6538 3.62257C24.9315 0.0203539 29.7126 -1.07863 33.3447 1.16004Z" fill="#B1A5CD"/>
<path id="logo_elements_4" fill-rule="evenodd" clip-rule="evenodd" d="M32.6063 16.0777C32.0587 16.2088 31.4938 16.2709 30.9275 16.28L29.7819 24.3843C31.4558 24.4437 33.1366 24.9252 34.6583 25.8667C39.2958 28.7363 40.7117 34.8011 37.8184 39.4005C35.9305 42.3718 32.7089 44 29.4052 44C27.6199 44 25.8142 43.5115 24.1726 42.5143C21.9359 41.1304 20.3764 38.9528 19.7608 36.4088C19.1657 33.8445 19.6171 31.2192 21.0125 29.0009C21.1326 28.81 21.2582 28.6246 21.3891 28.4447L15.3839 23.6721C13.8192 25.4293 11.5897 26.3755 9.31611 26.3755C7.85919 26.3755 6.38175 25.9889 5.06847 25.1748C1.29279 22.8344 0.143669 17.9093 2.50347 14.1646C4.86327 10.4199 9.82911 9.28025 13.6048 11.6207C14.8764 12.4089 15.85 13.4903 16.4921 14.721L23.483 11.631C22.3857 9.26846 22.4723 6.4223 23.9674 4.04992C26.3271 0.305235 31.293 -0.83445 35.0687 1.50598C38.8443 3.8464 39.9935 8.77147 37.6337 12.5162C36.4845 14.3274 34.7198 15.5892 32.6063 16.0777ZM24.1334 11.5747C23.0222 9.3547 23.0621 6.63149 24.4804 4.37554C26.6555 0.915781 31.2725 -0.142498 34.7403 2.03511C38.2287 4.19238 39.2958 8.75112 37.1207 12.2109C36.0741 13.8797 34.412 15.0397 32.4831 15.4875C31.9055 15.6216 31.3205 15.6845 30.7391 15.6789C30.7257 15.6752 30.712 15.6724 30.6979 15.6706C30.6629 15.6663 30.6278 15.6684 30.5941 15.6761C29.2842 15.6379 27.9975 15.2525 26.8607 14.5513C25.6987 13.8327 24.8053 12.8477 24.211 11.7255C24.2071 11.7043 24.2012 11.6828 24.1931 11.6614C24.1763 11.6282 24.1562 11.5993 24.1334 11.5747ZM23.7665 12.1837L16.7506 15.2658C17.7449 17.5843 17.6195 20.3303 16.1698 22.6309C16.0441 22.8287 15.9111 23.0192 15.7714 23.2022L21.7625 27.9636C23.6238 25.7124 26.3504 24.4582 29.1552 24.3818L30.3021 16.2673C28.9731 16.1897 27.6872 15.7873 26.5323 15.0601C25.3385 14.32 24.4072 13.3216 23.7665 12.1837ZM29.4269 24.9916C31.1092 24.9919 32.8118 25.4396 34.3094 26.4162C38.6392 29.1026 39.973 34.7807 37.2643 39.0952C34.5557 43.3894 28.8306 44.7123 24.4804 42.0259C22.3873 40.7234 20.9099 38.6882 20.3558 36.2867C19.8018 33.8852 20.2122 31.4227 21.5255 29.3265C23.2887 26.5203 26.3222 24.9941 29.418 24.9916L29.4269 24.9916ZM2.99595 14.4699C4.41183 12.2312 6.85371 10.9898 9.33663 10.9898C10.6909 10.9898 12.0453 11.3561 13.2559 12.1091C16.7443 14.2664 17.8114 18.8251 15.6363 22.2849C13.4611 25.7446 8.86467 26.8029 5.37627 24.6457C1.88787 22.4884 0.820829 17.9297 2.99595 14.4699Z" fill="#302A3E"/>
<g id="logo_elements_5">
<path d="M52.0588 29.1434C52.2229 29.3265 52.4692 29.4079 52.7359 29.4079C53.0232 29.4079 53.2489 29.3062 53.4541 29.1841C53.6388 29.0009 53.7209 28.777 53.7209 28.5125V13.9408L65.3967 29.123C65.5404 29.3265 65.7661 29.4283 66.0944 29.4283C66.3612 29.4283 66.5869 29.3265 66.7716 29.1434C66.9563 28.9602 67.0383 28.7363 67.0383 28.4718V11.4579C67.0383 11.1933 66.9563 10.9695 66.7716 10.7863C66.6074 10.6031 66.3612 10.5217 66.0944 10.5217C65.8277 10.5217 65.6019 10.6031 65.4173 10.7863C65.2326 10.9491 65.13 11.1933 65.13 11.4579V26.0499L53.4746 10.8677C53.29 10.6235 53.0232 10.5217 52.7359 10.5217C52.4692 10.5217 52.2434 10.6031 52.0588 10.7863C51.8741 10.9491 51.792 11.1933 51.792 11.4579V28.4718C51.792 28.7363 51.8741 28.9602 52.0588 29.1434Z" fill="#302A3E"/>
<path d="M102.435 29.123C102.62 29.3062 102.846 29.4079 103.113 29.4079C103.379 29.4079 103.605 29.3062 103.79 29.123C103.974 28.9399 104.056 28.716 104.056 28.4514V20.84H109.761C110.028 20.84 110.253 20.7585 110.438 20.5754C110.623 20.3922 110.705 20.1887 110.705 19.9241C110.705 19.6392 110.602 19.4153 110.438 19.2525C110.274 19.0897 110.028 19.0083 109.761 19.0083H104.056V12.333H113.331C113.598 12.333 113.824 12.2516 114.009 12.0888C114.193 11.9056 114.275 11.7021 114.275 11.4375C114.275 11.173 114.193 10.9695 114.009 10.7863C113.844 10.6031 113.598 10.5217 113.331 10.5217H103.113C102.846 10.5217 102.62 10.6031 102.435 10.7863C102.251 10.9491 102.148 11.1933 102.148 11.4579V28.4514C102.148 28.716 102.251 28.9399 102.435 29.123Z" fill="#302A3E"/>
<path d="M152.607 14.2461C152.853 14.5106 153.181 14.6327 153.551 14.6327C153.941 14.6327 154.248 14.5106 154.495 14.2461C154.761 13.9815 154.884 13.6559 154.884 13.2895C154.884 12.8825 154.761 12.5772 154.495 12.333C154.248 12.0888 153.941 11.9667 153.571 11.9667C153.181 11.9667 152.873 12.0888 152.607 12.333C152.34 12.5772 152.217 12.9029 152.217 13.2895C152.217 13.6762 152.36 13.9815 152.607 14.2461Z" fill="#302A3E"/>
<path fill-rule="evenodd" clip-rule="evenodd" d="M116.533 16.9325C117.559 16.3423 118.708 16.0573 119.98 16.0573C121.252 16.0573 122.401 16.3423 123.407 16.9325C124.433 17.5023 125.254 18.3164 125.849 19.3543C126.444 20.3922 126.731 21.5319 126.731 22.7937V28.4514C126.731 28.716 126.649 28.9195 126.464 29.1027C126.3 29.2858 126.054 29.3672 125.787 29.3672C125.52 29.3672 125.295 29.2858 125.11 29.123C124.925 28.9399 124.843 28.716 124.843 28.4514V27.0065C124.269 27.7798 123.55 28.3904 122.668 28.8381C121.806 29.2858 120.842 29.5097 119.775 29.5097C118.544 29.5097 117.435 29.2248 116.43 28.6346C115.445 28.0444 114.645 27.2303 114.07 26.2128C113.496 25.1952 113.208 24.0555 113.208 22.7937C113.208 21.5319 113.496 20.3719 114.091 19.3543C114.686 18.3367 115.507 17.5227 116.533 16.9325ZM117.456 27.1693C118.215 27.5967 119.057 27.8205 119.98 27.8205C120.903 27.8205 121.745 27.617 122.483 27.1693C123.222 26.7215 123.817 26.1313 124.248 25.358C124.659 24.5846 124.884 23.7299 124.884 22.7733C124.884 21.8168 124.679 20.9621 124.248 20.1887C123.817 19.4357 123.222 18.8252 122.483 18.3774C121.745 17.9297 120.903 17.7058 119.98 17.7058C119.057 17.7058 118.215 17.9297 117.456 18.3774C116.697 18.8252 116.102 19.4153 115.671 20.1887C115.219 20.9621 115.014 21.8168 115.014 22.7733C115.014 23.7299 115.24 24.5846 115.671 25.358C116.102 26.1313 116.697 26.7419 117.456 27.1693Z" fill="#302A3E"/>
<path d="M146.676 16.6882C145.938 16.2405 145.096 16.0166 144.132 16.0166C143.188 16.0166 142.347 16.2202 141.588 16.6272C140.828 17.0342 140.213 17.5837 139.741 18.3164C139.33 17.6041 138.756 17.0342 138.038 16.6272C137.319 16.2202 136.519 16.0166 135.616 16.0166C134.898 16.0166 134.2 16.1591 133.585 16.444C132.969 16.7289 132.415 17.136 131.964 17.6448V17.1156C131.964 16.8511 131.882 16.6272 131.717 16.444C131.533 16.2609 131.307 16.1795 131.04 16.1795C130.773 16.1795 130.548 16.2609 130.363 16.444C130.178 16.6068 130.096 16.8511 130.096 17.1156V28.4921C130.096 28.777 130.178 29.0009 130.363 29.1637C130.527 29.3265 130.773 29.4079 131.04 29.4079C131.328 29.4079 131.553 29.3265 131.717 29.1637C131.882 28.9806 131.964 28.7567 131.964 28.4921V21.3487C131.964 20.3108 132.292 19.456 132.949 18.8048C133.585 18.1332 134.426 17.8076 135.432 17.8076C136.396 17.8076 137.176 18.1332 137.771 18.8048C138.366 19.4764 138.653 20.3922 138.653 21.5319V28.4921C138.653 28.777 138.735 29.0009 138.92 29.1637C139.084 29.3265 139.33 29.4079 139.597 29.4079C139.884 29.4079 140.11 29.3265 140.274 29.1637C140.438 28.9806 140.52 28.7567 140.52 28.4921V21.4912C140.52 20.3922 140.808 19.4968 141.444 18.8252C142.08 18.1536 142.901 17.8076 143.927 17.8076C144.891 17.8076 145.671 18.1332 146.266 18.8048C146.861 19.4764 147.148 20.3922 147.148 21.5319V28.4921C147.148 28.777 147.23 29.0009 147.415 29.1637C147.579 29.3265 147.826 29.4079 148.092 29.4079C148.38 29.4079 148.605 29.3265 148.769 29.1637C148.934 28.9806 149.016 28.7567 149.016 28.4921V21.4912C149.016 20.3922 148.811 19.4357 148.4 18.6013C147.99 17.7872 147.415 17.136 146.676 16.6882Z" fill="#302A3E"/>
<path d="M152.976 29.1434C153.14 29.3265 153.386 29.4079 153.653 29.4079C153.941 29.4079 154.166 29.3062 154.33 29.123C154.495 28.9602 154.577 28.716 154.577 28.4514V17.1156C154.577 16.8511 154.495 16.6272 154.33 16.444C154.146 16.2609 153.92 16.1795 153.653 16.1795C153.386 16.1795 153.161 16.2609 152.976 16.444C152.791 16.6068 152.709 16.8511 152.709 17.1156V28.4718C152.709 28.7363 152.791 28.9602 152.976 29.1434Z" fill="#302A3E"/>
<path d="M159.276 28.2276C159.891 29.0213 160.712 29.4079 161.697 29.4079H162.025C162.354 29.4079 162.62 29.3265 162.826 29.1637C163.031 28.9806 163.133 28.7567 163.133 28.4921C163.133 28.2072 163.051 27.9833 162.908 27.8205C162.744 27.6577 162.559 27.5763 162.313 27.5763H161.697C161.266 27.5763 160.897 27.3524 160.61 26.9251C160.322 26.4977 160.179 25.9278 160.179 25.2359V11.4375C160.179 11.1526 160.097 10.9288 159.932 10.7659C159.748 10.6031 159.522 10.5217 159.255 10.5217C158.988 10.5217 158.783 10.6031 158.599 10.7659C158.414 10.9491 158.332 11.173 158.332 11.4375V25.2155C158.332 26.4366 158.64 27.4542 159.276 28.2276Z" fill="#302A3E"/>
<path d="M176 16.9325C176 16.6272 175.815 16.383 175.445 16.2405C175.281 16.1795 175.138 16.1387 175.035 16.1591C174.707 16.1591 174.461 16.3423 174.296 16.6882L169.761 26.5994L165.001 16.6475C164.837 16.3219 164.611 16.1388 164.262 16.1388C164.098 16.1388 163.954 16.1795 163.831 16.2405C163.482 16.4033 163.298 16.6272 163.298 16.9732C163.298 17.136 163.339 17.2784 163.4 17.4005L168.838 28.5735V28.5939L166.417 33.8853C166.355 34.0277 166.314 34.1702 166.314 34.3127C166.314 34.6586 166.499 34.8825 166.868 35.0453C166.991 35.1064 167.135 35.1471 167.299 35.1471C167.607 35.1471 167.833 34.9639 167.997 34.5976L175.897 17.3598C175.958 17.2174 176 17.0749 176 16.9325Z" fill="#302A3E"/>
<path fill-rule="evenodd" clip-rule="evenodd" d="M76.6212 16.0573C77.8319 16.0573 78.8989 16.3423 79.8223 16.8918C80.7457 17.4412 81.4639 18.2146 81.9769 19.2118C82.4899 20.1887 82.7361 21.308 82.7361 22.5698C82.7361 22.8344 82.6541 23.0379 82.4899 23.1804C82.3257 23.3432 82.1205 23.4042 81.8538 23.4042H72.0042C72.1273 24.7271 72.6608 25.8057 73.5637 26.6198C74.4666 27.4338 75.6157 27.8612 76.97 27.8612C77.5651 27.8612 78.1397 27.7595 78.7347 27.556C79.3298 27.3524 79.8018 27.0879 80.1711 26.8029C80.3763 26.6401 80.6021 26.5587 80.8278 26.5587C81.0125 26.5587 81.1971 26.6198 81.3613 26.7622C81.587 26.9454 81.6691 27.1693 81.6691 27.4135C81.6691 27.617 81.587 27.8205 81.4023 27.963C80.8688 28.4107 80.1917 28.7974 79.3503 29.0823C78.5295 29.3876 77.7293 29.5301 76.97 29.5301C75.6773 29.5301 74.5076 29.2451 73.4816 28.6753C72.4556 28.1054 71.6553 27.3117 71.0808 26.2738C70.5062 25.2562 70.219 24.0962 70.219 22.7937C70.219 21.4912 70.4857 20.3312 71.0398 19.2932C71.5938 18.2757 72.3325 17.4616 73.3175 16.8918C74.2819 16.3423 75.39 16.0573 76.6212 16.0573ZM76.6212 17.7262C75.39 17.7262 74.364 18.1128 73.5432 18.8658C72.7224 19.6189 72.2299 20.6161 72.0452 21.8575H80.9714C80.8483 20.6161 80.3763 19.6189 79.5966 18.8658C78.8373 18.0925 77.8319 17.7262 76.6212 17.7262Z" fill="#302A3E"/>
<path fill-rule="evenodd" clip-rule="evenodd" d="M88.0508 28.6549C89.0768 29.2451 90.226 29.5301 91.5187 29.5301C92.8115 29.5301 93.9606 29.2248 94.9866 28.6549C96.0126 28.0851 96.8129 27.271 97.408 26.2535C98.003 25.2359 98.2903 24.0962 98.2903 22.814C98.2903 21.5319 98.003 20.3922 97.408 19.3543C96.8129 18.3164 96.0126 17.5023 94.9866 16.9325C93.9606 16.3423 92.8115 16.0573 91.5187 16.0573C90.2465 16.0573 89.0768 16.3423 88.0508 16.9325C87.0248 17.5226 86.2246 18.3164 85.6295 19.3543C85.0344 20.3922 84.7471 21.5319 84.7471 22.814C84.7471 24.0758 85.0549 25.2359 85.6295 26.2535C86.204 27.271 87.0248 28.0647 88.0508 28.6549ZM94.0632 27.1693C93.3039 27.5967 92.4626 27.8205 91.5187 27.8205C90.5953 27.8205 89.754 27.617 88.9948 27.1693C88.2355 26.7215 87.6404 26.1313 87.2095 25.358C86.7786 24.5846 86.5734 23.7299 86.5734 22.7733C86.5734 21.7965 86.7786 20.9417 87.2095 20.1683C87.6404 19.395 88.2355 18.7844 88.9948 18.3571C89.754 17.9297 90.5953 17.7058 91.5187 17.7058C92.4626 17.7058 93.3245 17.9297 94.0632 18.3571C94.8224 18.8048 95.397 19.395 95.8279 20.1683C96.2588 20.9417 96.464 21.7965 96.464 22.7733C96.464 23.7299 96.2588 24.5846 95.8279 25.358C95.397 26.1313 94.8019 26.7419 94.0632 27.1693Z" fill="#302A3E"/>
</g>
</g>
<defs>
<clipPath id="clip0_223_9716">
<rect width="176" height="44" fill="white"/>
</clipPath>
</defs>
</symbol>

<symbol id="icon-tg" width="56" height="56" viewBox="0 0 56 56" fill="none" xmlns="http://www.w3.org/2000/svg">
<path d="M24.0003 30V37.3333L28.3323 32.964M40.0003 18.6666L14.667 28.6666L24.0003 30L40.0003 18.6666ZM40.0003 18.6666L36.667 38.6666L24.0003 30L40.0003 18.6666ZM40.0003 18.6666L24.0003 30L40.0003 18.6666Z" stroke="#302A3E" stroke-width="2" stroke-linecap="round" stroke-linejoin="round"/>
<rect x="1" y="1" width="54" height="54" rx="27" stroke="#302A3E" stroke-width="2"/>
</symbol>

<symbol id="icon-VK" width="56" height="56" viewBox="0 0 56 56" fill="none" xmlns="http://www.w3.org/2000/svg">
<path d="M40.7723 21.14C40.959 20.52 40.7723 20.0653 39.8897 20.0653H36.9657C36.2217 20.0653 35.8817 20.4586 35.695 20.8906C35.695 20.8906 34.2083 24.516 32.1017 26.8666C31.4217 27.5506 31.111 27.7666 30.7403 27.7666C30.555 27.7666 30.2857 27.5506 30.2857 26.9306V21.14C30.2857 20.396 30.071 20.0653 29.451 20.0653H24.8563C24.3923 20.0653 24.1123 20.4093 24.1123 20.7373C24.1123 21.4413 25.1657 21.604 25.2737 23.588V27.892C25.2737 28.8346 25.1043 29.0066 24.731 29.0066C23.7403 29.0066 21.3297 25.368 19.899 21.2026C19.6203 20.3933 19.339 20.0666 18.5923 20.0666H15.6697C14.8337 20.0666 14.667 20.46 14.667 20.892C14.667 21.668 15.6577 25.508 19.2817 30.5866C21.6977 34.0546 25.099 35.9346 28.1977 35.9346C30.055 35.9346 30.2843 35.5173 30.2843 34.7973V32.176C30.2843 31.3413 30.4617 31.1733 31.0497 31.1733C31.4817 31.1733 32.2257 31.392 33.9603 33.0626C35.9417 35.044 36.2697 35.9333 37.383 35.9333H40.3057C41.1403 35.9333 41.5577 35.516 41.3177 34.692C41.055 33.872 40.1083 32.6786 38.8523 31.2666C38.1697 30.4613 37.1497 29.5946 36.839 29.1613C36.4057 28.6026 36.531 28.356 36.839 27.86C36.8403 27.8613 40.4017 22.8453 40.7723 21.14V21.14Z" stroke="#302A3E" stroke-width="2"/>
<rect x="1" y="1" width="54" height="54" rx="27" stroke="#302A3E" stroke-width="2"/>
</symbol>

<symbol id="icon-tube" width="56" height="56" viewBox="0 0 56 56" fill="none" xmlns="http://www.w3.org/2000/svg">
<path d="M42.0538 20.56C41.8954 19.9273 41.5728 19.3475 41.1186 18.8792C40.6645 18.411 40.0948 18.071 39.4671 17.8934C37.1738 17.3334 28.0004 17.3334 28.0004 17.3334C28.0004 17.3334 18.8271 17.3334 16.5338 17.9467C15.9061 18.1243 15.3364 18.4644 14.8822 18.9326C14.4281 19.4008 14.1055 19.9806 13.9471 20.6134C13.5274 22.9408 13.3221 25.3018 13.3338 27.6667C13.3188 30.0494 13.5241 32.4284 13.9471 34.7734C14.1217 35.3865 14.4515 35.9442 14.9046 36.3927C15.3577 36.8411 15.9189 37.1651 16.5338 37.3334C18.8271 37.9467 28.0004 37.9467 28.0004 37.9467C28.0004 37.9467 37.1738 37.9467 39.4671 37.3334C40.0948 37.1558 40.6645 36.8157 41.1186 36.3475C41.5728 35.8793 41.8954 35.2995 42.0538 34.6667C42.4702 32.3568 42.6755 30.0138 42.6671 27.6667C42.6821 25.284 42.4767 22.905 42.0538 20.56V20.56Z" stroke="#302A3E" stroke-width="2" stroke-linecap="round" stroke-linejoin="round"/>
<path d="M25 32.0266L32.6667 27.6666L25 23.3066V32.0266Z" stroke="#302A3E" stroke-width="2" stroke-linecap="round" stroke-linejoin="round"/>
<rect x="1" y="1" width="54" height="54" rx="27" stroke="#302A3E" stroke-width="2"/>
</symbol>

<symbol id="curl-bog" width="55" height="47" viewBox="0 0 55 47" fill="none" xmlns="http://www.w3.org/2000/svg">
<path id="curl bog" d="M1.79089 45.3944C1.79089 45.3944 16.6793 43.4572 24.6215 27.3225C32.5637 11.1879 19.666 -2.17746 13.1769 2.13274C6.68783 6.44295 9.83888 26.6707 30.3068 24.5666C48.7353 22.6721 53.1765 2.96868 53.1765 2.96868" stroke="#302A3E" stroke-width="2" stroke-linecap="round"/>
</symbol>

<symbol id="comp" xmlns="http://www.w3.org/2000/svg" width="212" height="189" viewBox="0 0 212 189" fill="none">
<path d="M130.521 162.651C131.478 162.942 131.478 162.941 131.479 162.941L131.479 162.938L131.483 162.925L131.498 162.875L131.558 162.679L131.79 161.915L132.673 159.01C133.433 156.506 134.521 152.927 135.83 148.624C138.448 140.019 141.95 128.52 145.484 116.946C149.018 105.372 152.586 93.7245 155.335 84.8213C156.709 80.3694 157.879 76.6052 158.738 73.88C159.168 72.5171 159.519 71.4163 159.778 70.6203C159.908 70.2219 160.014 69.9029 160.095 69.6669C160.136 69.5487 160.169 69.4544 160.195 69.3828C160.208 69.3471 160.219 69.319 160.227 69.2978L160.237 69.2736C160.239 69.2677 160.24 69.2655 160.24 69.2662C160.944 67.6691 160.458 66.026 159.945 64.9356C159.679 64.3696 159.379 63.8933 159.147 63.5595C159.03 63.3915 158.929 63.257 158.855 63.1625C158.828 63.1286 158.805 63.0997 158.786 63.0762C158.778 63.0668 158.771 63.0583 158.765 63.0507L158.738 63.0183L158.73 63.0082L158.727 63.0048L158.726 63.0034L158.725 63.0029C158.725 63.0026 158.725 63.0024 157.965 63.6529L158.725 63.0024L158.595 62.8503L158.416 62.7601L52.4669 9.29022L52.2762 9.19402L52.0629 9.18406L49.3032 9.05524L48.8739 9.0352L48.564 9.33285L45.7281 12.056L45.549 12.228L45.4712 12.4638L19.1337 92.2332L19.1201 92.2746L19.1101 92.3169C18.1665 96.3118 17.978 98.7178 18.0495 100.166C18.0855 100.893 18.1879 101.399 18.3059 101.752C18.3652 101.929 18.4292 102.07 18.4919 102.182C18.5233 102.238 18.5543 102.287 18.5841 102.329C18.599 102.35 18.6136 102.369 18.6277 102.386C18.6347 102.395 18.6417 102.404 18.6485 102.412L18.6586 102.423L18.6636 102.429L18.666 102.432C18.6672 102.433 18.6685 102.434 19.4116 101.765M130.521 162.651C131.241 163.346 131.24 163.346 131.24 163.346L131.239 163.347L131.238 163.349L131.233 163.354L131.219 163.368C131.208 163.379 131.192 163.395 131.173 163.413C131.135 163.451 131.081 163.502 131.012 163.565C130.876 163.69 130.68 163.86 130.434 164.05C129.946 164.427 129.24 164.9 128.388 165.25C127.536 165.6 126.501 165.843 125.381 165.707C124.245 165.57 123.096 165.053 122.027 164.007C121.877 163.86 121.36 163.477 120.403 162.838C119.482 162.223 118.232 161.422 116.697 160.459C113.627 158.535 109.439 155.98 104.511 153.012C94.6564 147.078 81.8609 139.502 69.178 132.037C56.4956 124.573 43.9284 117.221 34.5315 111.735C29.8331 108.992 25.9274 106.716 23.1963 105.125C21.8308 104.33 20.7589 103.706 20.0285 103.281L19.1948 102.796L18.9812 102.672L18.9272 102.64L18.9136 102.633L18.9102 102.631C18.9094 102.63 18.9091 102.63 19.4116 101.765M130.521 162.651L131.478 162.942L131.408 163.172L131.241 163.346L130.521 162.651ZM19.4116 101.765L18.9091 102.63L18.7734 102.551L18.6685 102.434L19.4116 101.765Z" fill="#F5B1B2" stroke="#302A3E" stroke-width="2"/>
<path d="M131.156 163.5L177.982 140.711C179.679 139.874 179.767 137.505 178.125 136.601L146.161 117.758" stroke="#302A3E" stroke-width="2" stroke-miterlimit="10" stroke-linecap="round" stroke-linejoin="round"/>
<path d="M143.651 125.932L164.835 138.989L134.657 152.5" stroke="#302A3E" stroke-width="2" stroke-miterlimit="10" stroke-linecap="round" stroke-linejoin="round"/>
<path d="M44.8906 17.4989L157.722 74.6004" stroke="#302A3E" stroke-width="2" stroke-miterlimit="10" stroke-linecap="round" stroke-linejoin="round"/>
</symbol>
<symbol id="play" width="48" height="48" viewBox="0 0 48 48" fill="none" xmlns="http://www.w3.org/2000/svg">
<g id="image">
<circle id="Ellipse 84" cx="24" cy="24" r="23" fill="#CDE1A4" stroke="#302A3E" stroke-width="2"/>
<path id="Polygon 1" d="M33 23.134C33.6667 23.5189 33.6667 24.4811 33 24.866L20.25 32.2272C19.5833 32.6121 18.75 32.131 18.75 31.3612L18.75 16.6388C18.75 15.869 19.5833 15.3879 20.25 15.7728L33 23.134Z" stroke="#302A3E" stroke-width="2"/>
</g>
</symbol>
<symbol id="electro" width="31" height="38" viewBox="0 0 31 38" fill="none" xmlns="http://www.w3.org/2000/svg">
<path id="Vector" d="M8.53663 28.663L8.53079 28.6334L8.52327 28.6042L1.59839 1.7412C1.59827 1.74073 1.59815 1.74026 1.59803 1.7398C1.57212 1.63638 1.5864 1.55881 1.61462 1.49698C1.64716 1.42568 1.70361 1.36608 1.76445 1.33189C1.82434 1.29824 1.85675 1.30508 1.85812 1.30541L1.85822 1.30544C1.8594 1.30571 1.86612 1.30725 1.87974 1.31782C1.89453 1.32928 1.9273 1.35922 1.96784 1.42695L2.00608 1.49085L2.05301 1.54817L11.5763 13.1798L11.5816 13.1862L11.5869 13.1925C12.4263 14.1838 13.9108 14.2881 14.8745 13.4093L22.3312 6.60953C22.6156 6.35018 22.8967 6.53377 22.9381 6.74385L22.938 6.74387L22.9408 6.75705L29.0409 35.7315L29.0453 35.7524L29.0506 35.7731C29.0781 35.8817 29.0598 35.9402 29.0434 35.9744C29.0217 36.0195 28.9758 36.0733 28.9008 36.1128C28.8257 36.1523 28.7465 36.1639 28.6817 36.1536C28.6266 36.1449 28.562 36.1185 28.4933 36.0373L18.1387 23.8094C17.2993 22.8181 15.8148 22.7138 14.8511 23.5926L9.14353 28.7974C9.06138 28.8723 8.91666 28.9141 8.75645 28.8662C8.60344 28.8205 8.55021 28.7319 8.53663 28.663Z" stroke="#302A3E" stroke-width="2"/>
</symbol>
<symbol id="zakoryka" xmlns="http://www.w3.org/2000/svg" width="118" height="52" viewBox="0 0 118 52" fill="none">
<path d="M117.176 51.0145C117.72 50.9178 118.082 50.3985 117.986 49.8548C117.889 49.311 117.37 48.9487 116.826 49.0454L117.176 51.0145ZM3.14367 0.0401983C2.59715 -0.0393803 2.0896 0.339151 2.01002 0.885674L0.713215 9.79176C0.633636 10.3383 1.01218 10.8458 1.55869 10.9254C2.10521 11.005 2.61277 10.6265 2.69234 10.0799L3.84506 2.16342L11.7616 3.31613C12.3081 3.39571 12.8157 3.01718 12.8952 2.47065C12.9748 1.92413 12.5963 1.41658 12.0498 1.337L3.14367 0.0401983ZM73.9993 28.0296L74.8226 28.5971L73.9993 28.0296ZM61.4969 16.5296L61.8683 17.4581L61.4969 16.5296ZM73.1759 27.462C66.4098 37.2777 59.2648 40.9807 52.3142 41.1058C45.2913 41.2323 38.2089 37.7159 31.6007 32.5292C18.3748 22.1481 7.62827 5.56344 3.8012 0.431921L2.19797 1.6276C5.9007 6.5924 16.8676 23.5076 30.3659 34.1024C37.1198 39.4036 44.6522 43.2441 52.3502 43.1055C60.1205 42.9656 67.8024 38.7814 74.8226 28.5971L73.1759 27.462ZM116.826 49.0454C99.0472 52.2085 79.8038 46.1775 67.8031 38.2337C61.7754 34.2436 57.7607 29.893 56.5439 26.1561C55.9489 24.3286 56.0375 22.7042 56.8143 21.3014C57.6038 19.8758 59.1856 18.5313 61.8683 17.4581L61.1255 15.6012C58.1841 16.7779 56.1521 18.3689 55.0647 20.3325C53.9647 22.3189 53.9135 24.5375 54.6422 26.7753C56.0727 31.1687 60.5593 35.8371 66.6992 39.9014C79.0337 48.0663 98.7908 54.2855 117.176 51.0145L116.826 49.0454ZM61.8683 17.4581C63.1403 16.9492 64.8381 16.831 66.628 17.1147C68.4091 17.3969 70.1936 18.0639 71.6156 19.0274C73.0417 19.9936 74.0335 21.2071 74.3866 22.5639C74.7314 23.889 74.512 25.5239 73.1759 27.462L74.8226 28.5971C76.4162 26.2853 76.8425 24.0601 76.3221 22.0602C75.81 20.092 74.4256 18.5154 72.7375 17.3716C71.0453 16.2251 68.9775 15.462 66.941 15.1393C64.9134 14.818 62.8285 14.9199 61.1255 15.6012L61.8683 17.4581Z" fill="black"/>
</symbol>
<symbol id="three" xmlns="http://www.w3.org/2000/svg" width="28" height="28" viewBox="0 0 28 28" fill="none">
<path d="M13.3352 15.9247C14.4325 16.0515 15.4248 15.2648 15.5516 14.1675C15.6784 13.0702 14.8917 12.0779 13.7944 11.9511C12.6971 11.8243 11.7048 12.6111 11.578 13.7083C11.4512 14.8056 12.2379 15.7979 13.3352 15.9247Z" fill="#302A3E"/>
<path d="M14.0237 9.96435C15.1209 10.0912 16.1133 9.30444 16.2401 8.20717C16.3669 7.1099 15.5801 6.1176 14.4829 5.9908C13.3856 5.86399 12.3933 6.65071 12.2665 7.74798C12.1397 8.84524 12.9264 9.83755 14.0237 9.96435Z" fill="#302A3E"/>
<path d="M12.6458 21.885C13.743 22.0118 14.7353 21.2251 14.8621 20.1278C14.9889 19.0306 14.2022 18.0383 13.1049 17.9115C12.0077 17.7847 11.0154 18.5714 10.8886 19.6686C10.7618 20.7659 11.5485 21.7582 12.6458 21.885Z" fill="#302A3E"/>
</symbol>
 <symbol id ="back"
          xmlns="http://www.w3.org/2000/svg"
          width="15"
          height="15"
          viewBox="0 0 15 15"
          fill="none"
        >
          <path
            fill-rule="evenodd"
            clip-rule="evenodd"
            d="M6.40478 2.82347C6.57786 2.99655 6.57786 3.27717 6.40478 3.45025L3.02488 6.83015H12.5916C12.8364 6.83015 13.0348 7.02857 13.0348 7.27334C13.0348 7.51811 12.8364 7.71654 12.5916 7.71654H3.02488L6.40478 11.0964C6.57786 11.2695 6.57786 11.5501 6.40478 11.7232C6.2317 11.8963 5.95109 11.8963 5.77801 11.7232L1.64153 7.58673C1.46845 7.41365 1.46845 7.13303 1.64153 6.95996L5.77801 2.82347C5.95109 2.6504 6.2317 2.65039 6.40478 2.82347Z"
            fill="#302A3E"
          />
        </symbol>
        <symbol id="formula1" width="121" height="59" viewBox="0 0 121 59" fill="none" xmlns="http://www.w3.org/2000/svg">
<g id="formule" clip-path="url(#clip0_208_9531)">
<g id="Group">
<path id="Vector" d="M5.37665 17.11C4.44436 16.6916 3.7284 16.208 3.19428 15.5718C3.04168 15.39 2.97634 15.1737 2.99096 15.0066C3.01288 14.7558 3.16022 14.516 3.46748 14.3744C3.68747 14.2673 3.9038 14.202 4.11283 14.2203C4.40547 14.2458 4.64534 14.3931 4.79429 14.6167C5.1758 15.0711 5.64824 15.4493 6.29885 15.7167C6.94947 15.9841 7.6492 16.1716 8.4435 16.241C9.61406 16.3433 10.5066 16.2528 11.1248 15.9278C11.7429 15.6029 12.0758 15.1687 12.1269 14.5837C12.1744 14.0404 11.922 13.5551 11.3696 13.1278C10.8172 12.7006 9.9194 12.3695 8.68351 12.0509C7.07502 11.6577 5.89921 11.1339 5.15606 10.4794C4.41292 9.82492 4.06064 9.03615 4.13372 8.20034C4.22873 7.11377 4.76533 6.27635 5.77802 5.77529C6.7489 5.27059 7.99049 5.0422 9.37007 5.16274C10.457 5.25772 11.4039 5.5089 12.169 5.91264C12.9341 6.31637 13.5628 6.83452 14.0096 7.50522C14.1168 7.72513 14.1857 7.8996 14.1711 8.06676C14.1492 8.31751 14.0055 8.5155 13.6983 8.6571C13.5655 8.72972 13.3947 8.7569 13.2274 8.74229C12.893 8.71306 12.6113 8.56212 12.3788 8.33125C11.6575 7.42602 10.5653 6.90948 9.14395 6.78528C8.22423 6.70492 7.49892 6.80998 6.92621 7.09682C6.35351 7.38366 6.02432 7.77599 5.97682 8.31928C5.92931 8.86256 6.1436 9.30239 6.61604 9.68055C7.08847 10.0587 7.98626 10.3898 9.30577 10.7157C11.036 11.1616 12.2954 11.6928 12.9931 12.3854C13.6908 13.078 14.0013 13.8631 13.9209 14.7825C13.8588 15.493 13.5949 16.1016 13.0876 16.6047C12.5802 17.1078 11.9166 17.4709 11.0549 17.6904C10.235 17.9135 9.30066 18.0003 8.25553 17.909C7.25585 17.7795 6.26714 17.5247 5.37665 17.11Z" fill="#302A3E"/>
<path id="Vector_2" d="M18.6645 3.40609C18.4356 3.13343 18.3357 2.82994 18.3686 2.45382C18.4015 2.0777 18.5525 1.79612 18.8634 1.61274C19.1325 1.4257 19.4361 1.3259 19.8542 1.36243C20.2304 1.39531 20.5121 1.54625 20.7865 1.78078C21.019 2.01165 21.157 2.36059 21.1278 2.69491C21.0986 3.02924 20.9476 3.31082 20.633 3.53599C20.3602 3.76482 20.0148 3.86097 19.6386 3.82809C19.2205 3.79156 18.8971 3.63697 18.6645 3.40609ZM17.6562 18.3092C17.5036 18.1274 17.3965 17.9075 17.4184 17.6568L18.3502 7.00011C18.3722 6.74937 18.474 6.54772 18.6977 6.39882C18.8795 6.24627 19.1377 6.1846 19.4303 6.21017C19.7229 6.23574 19.9247 6.33759 20.0773 6.51937C20.2299 6.70114 20.2952 6.9174 20.2733 7.16815L19.3414 17.8248C19.3195 18.0756 19.2176 18.2772 19.0358 18.4298C18.854 18.5823 18.5958 18.644 18.345 18.6221C18.0523 18.5965 17.8088 18.491 17.6562 18.3092Z" fill="#302A3E"/>
<path id="Vector_3" d="M34.8078 8.10189C35.6874 8.64195 36.3814 9.37636 36.8481 10.3015C37.3149 11.2266 37.4743 12.2932 37.3684 13.5052L36.8531 19.3977C36.8312 19.6484 36.7293 19.8501 36.5057 19.999C36.3238 20.1515 36.0657 20.2132 35.8148 20.1913C35.5222 20.1657 35.3205 20.0639 35.1261 19.8784C34.9735 19.6967 34.8663 19.4768 34.8883 19.226L35.4072 13.2917C35.5241 11.9544 35.1974 10.8731 34.4652 10.0932C33.733 9.31339 32.6753 8.88408 31.3375 8.76719C30.5432 8.69778 29.7798 8.7574 29.0853 8.99149C28.3908 9.22558 27.8563 9.55786 27.4325 10.0683C27.0124 10.5369 26.7522 11.1037 26.7011 11.6888L26.1128 18.4171C26.0908 18.6678 25.9889 18.8695 25.8071 19.022C25.6253 19.1746 25.3671 19.2363 25.1163 19.2143C24.8237 19.1888 24.6219 19.0869 24.4275 18.9015C24.2749 18.7197 24.1678 18.4998 24.1897 18.2491L25.1215 7.59238C25.1435 7.34163 25.2453 7.13999 25.469 6.99109C25.6508 6.83854 25.909 6.77687 26.2016 6.80244C26.4942 6.82801 26.696 6.92986 26.8486 7.11164C27.0012 7.29341 27.0665 7.50967 27.0446 7.76042L26.9788 8.51265C27.5698 8.01686 28.2789 7.61561 29.1024 7.35069C29.9259 7.08577 30.773 7.03345 31.6927 7.11382C32.8633 7.2161 33.9283 7.56182 34.8078 8.10189Z" fill="#302A3E"/>
</g>
<g id="Group_2">
<path id="Vector_4" d="M3.51067 47.603C2.51304 46.9684 1.78451 46.1468 1.28328 45.1344C0.782051 44.1221 0.584423 43.01 0.686742 41.8398C0.792715 40.6279 1.18036 39.5669 1.80788 38.6532C2.4354 37.7395 3.29548 37.0567 4.34632 36.6011C5.39716 36.1454 6.55148 35.9515 7.76384 36.0575C9.85412 36.2401 11.4642 37.0967 12.6323 38.6726C12.7467 38.8089 12.8157 38.9834 12.8011 39.1506C12.7792 39.4013 12.6355 39.5993 12.3282 39.7409C12.1537 39.8099 12.0246 39.8407 11.8574 39.8261C11.6066 39.8042 11.3667 39.6569 11.176 39.4297C10.7182 38.8843 10.2076 38.4607 9.64422 38.1588C9.08087 37.857 8.42294 37.6731 7.67044 37.6074C6.75072 37.527 5.93815 37.6666 5.19456 37.9806C4.45098 38.2946 3.85635 38.8322 3.37617 39.5061C2.9378 40.1837 2.65569 41.0012 2.5753 41.9206C2.49856 42.7982 2.6345 43.6523 2.99043 44.3993C3.34637 45.1463 3.88048 45.7825 4.60009 46.2244C5.31605 46.708 6.13389 46.99 7.09541 47.074C8.43319 47.1909 9.50756 46.9479 10.3985 46.3941C10.6221 46.2452 10.8803 46.1836 11.0893 46.2018C11.2983 46.2201 11.4619 46.2765 11.6182 46.4165C11.8544 46.6056 11.9197 46.8218 11.8978 47.0726C11.8795 47.2815 11.7813 47.4414 11.6031 47.5522C10.303 48.4492 8.75419 48.8192 6.95655 48.6621C5.61147 48.6288 4.4665 48.234 3.51067 47.603Z" fill="#302A3E"/>
<path id="Vector_5" d="M18.3952 48.9037C17.3976 48.2691 16.6273 47.4438 16.1261 46.4315C15.6248 45.4192 15.4272 44.307 15.5295 43.1369C15.6318 41.9667 16.0231 40.864 16.6925 39.9539C17.3618 39.0439 18.2637 38.3647 19.3563 37.9127C20.449 37.4608 21.6869 37.2742 22.9829 37.3874C24.2788 37.5007 25.4656 37.8991 26.4632 38.5337C27.4609 39.1683 28.2312 39.9936 28.7324 41.006C29.2337 42.0183 29.4731 43.1341 29.3671 44.346C29.2612 45.558 28.8772 46.5772 28.2078 47.4872C27.5385 48.3973 26.6366 49.0764 25.544 49.5284C24.4513 49.9803 23.2134 50.1669 21.9174 50.0537C20.5797 49.9368 19.3929 49.5383 18.3952 48.9037ZM24.6612 48.0616C25.4503 47.7095 26.1249 47.221 26.605 46.5471C27.0852 45.8731 27.3637 45.0974 27.4441 44.178C27.5245 43.2586 27.3849 42.4463 27.0289 41.6993C26.673 40.9523 26.0971 40.3125 25.3775 39.8706C24.6615 39.3869 23.8019 39.1013 22.8404 39.0173C21.8788 38.9332 21.0244 39.0691 20.1936 39.4176C19.4046 39.7698 18.73 40.2583 18.2498 40.9322C17.7278 41.6025 17.4457 42.42 17.369 43.2976C17.2922 44.1752 17.4282 45.0293 17.8259 45.7799C18.2236 46.5306 18.7578 47.1668 19.4774 47.6086C20.1933 48.0923 21.053 48.378 22.0145 48.462C22.976 48.546 23.8722 48.4138 24.6612 48.0616Z" fill="#302A3E"/>
<path id="Vector_6" d="M34.3747 50.6798C33.4424 50.2615 32.7264 49.7778 32.1923 49.1416C32.0397 48.9598 31.9744 48.7435 31.989 48.5764C32.0109 48.3256 32.1583 48.0858 32.4655 47.9443C32.6855 47.8371 32.9019 47.7718 33.1109 47.7901C33.4035 47.8157 33.6434 47.963 33.7923 48.1865C34.1738 48.641 34.6463 49.0191 35.2969 49.2865C35.9475 49.5539 36.6472 49.7414 37.4415 49.8108C38.6121 49.9131 39.5046 49.8226 40.1228 49.4977C40.741 49.1727 41.0738 48.7386 41.125 48.1535C41.1725 47.6102 40.92 47.1249 40.3676 46.6977C39.8152 46.2704 38.9175 45.9393 37.6816 45.6208C36.0731 45.2275 34.8973 44.7037 34.1541 44.0492C33.411 43.3947 33.0587 42.606 33.1318 41.7702C33.2268 40.6836 33.7634 39.8462 34.7761 39.3451C35.7469 38.8404 36.9885 38.612 38.3681 38.7326C39.4551 38.8275 40.402 39.0787 41.167 39.4825C41.9321 39.8862 42.5608 40.4043 43.0077 41.075C43.1148 41.295 43.1838 41.4694 43.1692 41.6366C43.1473 41.8873 43.0036 42.0853 42.6963 42.2269C42.5636 42.2995 42.3927 42.3267 42.2255 42.3121C41.891 42.2829 41.6094 42.1319 41.3768 41.9011C40.6556 40.9958 39.5634 40.4793 38.142 40.3551C37.2223 40.2747 36.497 40.3798 35.9243 40.6666C35.3516 40.9535 35.0224 41.3458 34.9749 41.8891C34.9274 42.4324 35.1417 42.8722 35.6141 43.2504C36.0865 43.6285 36.9843 43.9596 38.3038 44.2855C40.0341 44.7315 41.2935 45.2626 41.9912 45.9552C42.6889 46.6478 42.9993 47.433 42.9189 48.3524C42.8568 49.0628 42.593 49.6714 42.0856 50.1745C41.5782 50.6776 40.9146 51.0407 40.0529 51.2602C39.233 51.4833 38.2987 51.5701 37.2536 51.4788C36.2576 51.3075 35.3106 51.0564 34.3747 50.6798Z" fill="#302A3E"/>
</g>
<g id="Group_3">
<path id="Vector_7" d="M82.7666 36.2953C82.9192 36.4771 82.9845 36.6933 82.9626 36.9441C82.9407 37.1948 82.8388 37.3965 82.6152 37.5454C82.3915 37.6943 82.1334 37.7559 81.8407 37.7303L81.2973 37.6829C80.4193 37.6061 79.6433 37.3278 78.9655 36.8896C78.2877 36.4513 77.7917 35.8606 77.4703 35.2008C77.1525 34.4993 77.0093 33.7288 77.0824 32.893L77.6122 26.8333L75.9818 26.6908C75.731 26.6689 75.5293 26.5671 75.373 26.4271C75.2167 26.2871 75.1514 26.0709 75.1697 25.8619C75.1879 25.6529 75.2898 25.4513 75.468 25.3405C75.6462 25.2298 75.8625 25.1645 76.1134 25.1864L77.7438 25.3288L78.0507 21.8184C78.0727 21.5677 78.1745 21.366 78.3564 21.2135C78.5382 21.0609 78.7964 20.9992 79.0472 21.0212C79.3398 21.0467 79.5416 21.1486 79.736 21.334C79.8886 21.5158 79.9957 21.7357 79.9738 21.9864L79.6668 25.4969L82.4678 25.7416C82.7186 25.7635 82.9203 25.8654 83.0766 26.0054C83.2329 26.1454 83.2982 26.3616 83.2799 26.5706C83.2617 26.7795 83.1634 26.9394 82.9816 27.0919C82.8034 27.2027 82.5871 27.268 82.3362 27.2461L79.5353 27.0013L79.0054 33.061C78.9396 33.8133 79.132 34.5038 79.5935 35.0074C80.0513 35.5527 80.6564 35.8582 81.4507 35.9276L82.1196 35.9861C82.4123 36.0117 82.614 36.1135 82.7666 36.2953Z" fill="#302A3E"/>
<path id="Vector_8" d="M96.7889 27.2035C97.7865 27.8381 98.5568 28.6634 99.0581 29.6757C99.5593 30.6881 99.7569 31.8002 99.6473 33.0539L99.2417 37.6927C99.1357 38.9046 98.748 39.9656 98.0751 40.9175C97.4021 41.8693 96.5002 42.5485 95.4039 43.0422C94.3076 43.536 93.1151 43.6845 91.7773 43.5676C90.4814 43.4543 89.3709 43.1467 88.4078 42.5994C87.4446 42.052 86.6597 41.3939 86.0602 40.5414C85.9076 40.3596 85.8804 40.1888 85.8987 39.9798C85.917 39.7709 86.0607 39.5729 86.2843 39.424C86.4625 39.3132 86.6334 39.286 86.8424 39.3043C87.0096 39.3189 87.1314 39.3717 87.2949 39.4281C87.4549 39.5263 87.5312 39.6172 87.6075 39.708C88.058 40.337 88.6485 40.8097 89.3718 41.2097C90.095 41.6098 90.962 41.8119 91.9235 41.8959C92.8432 41.9763 93.6976 41.8404 94.4867 41.4882C95.2757 41.1361 95.9121 40.6022 96.4378 39.8901C96.9216 39.1744 97.2037 38.3568 97.2914 37.3539L97.3791 36.3509C96.8007 37.1847 96.0316 37.7912 95.068 38.2123C94.1044 38.6335 93.0374 38.7929 91.9086 38.6942C90.6126 38.581 89.464 38.228 88.5082 37.597C87.5524 36.9661 86.8238 36.1444 86.3226 35.1321C85.8214 34.1198 85.6237 33.0076 85.7297 31.7957C85.8357 30.5838 86.227 29.481 86.8963 28.5709C87.5656 27.6609 88.4675 26.9817 89.5602 26.5297C90.6528 26.0778 91.8871 25.933 93.1831 26.0462C94.6008 26.2122 95.7912 26.5689 96.7889 27.2035ZM94.9414 36.7695C95.7304 36.4174 96.405 35.9289 96.8852 35.255C97.3654 34.581 97.6475 33.7635 97.7242 32.8859C97.8046 31.9665 97.665 31.1542 97.3091 30.4072C96.9532 29.6602 96.3772 29.0204 95.6576 28.5785C94.9417 28.0948 94.082 27.8092 93.1205 27.7252C92.159 27.6411 91.2628 27.7734 90.4319 28.1219C89.6429 28.474 88.9683 28.9625 88.4881 29.6364C88.008 30.3104 87.7259 31.1279 87.6491 32.0055C87.5687 32.9249 87.7083 33.7372 88.0642 34.4842C88.4202 35.2312 88.9961 35.871 89.7157 36.3129C90.4353 36.7548 91.295 37.0404 92.2983 37.1281C93.2598 37.2121 94.156 37.0799 94.9414 36.7695Z" fill="#302A3E"/>
</g>
<g id="Group_4">
<path id="Vector_9" d="M61.0346 28.5425C60.9201 28.4062 60.8893 28.2771 60.9039 28.11C60.9185 27.9428 60.975 27.7793 61.1077 27.7067C61.2441 27.5923 61.3731 27.5614 61.5822 27.5797L67.3513 28.0838C67.5185 28.0984 67.6821 28.1548 67.7966 28.2912C67.911 28.4275 67.9419 28.5565 67.9272 28.7237C67.9126 28.8908 67.8599 29.0126 67.7235 29.127C67.5871 29.2414 67.458 29.2722 67.249 29.254L61.4798 28.7498C61.2708 28.7316 61.149 28.6788 61.0346 28.5425ZM60.7203 32.1365C60.6059 32.0002 60.575 31.8712 60.5897 31.704C60.6043 31.5368 60.6607 31.3733 60.7934 31.3007C60.9298 31.1863 61.0589 31.1554 61.2679 31.1737L67.0371 31.6778C67.2043 31.6924 67.3678 31.7488 67.4823 31.8852C67.5967 32.0215 67.6276 32.1505 67.613 32.3177C67.5984 32.4849 67.5456 32.6066 67.4092 32.721C67.2728 32.8354 67.1438 32.8662 66.9347 32.848L61.1656 32.3439C60.9565 32.3256 60.7966 32.2274 60.7203 32.1365Z" fill="#302A3E"/>
</g>
<path id="Vector_10" d="M52.3547 29.5528L2.648 25.2094C2.31355 25.1802 2.08465 24.9075 2.11388 24.5732C2.14311 24.2388 2.41587 24.01 2.75032 24.0392L52.457 28.3826C52.7915 28.4118 53.0204 28.6845 52.9912 29.0188C52.9619 29.3532 52.6892 29.582 52.3547 29.5528Z" fill="#302A3E"/>
<path id="Vector_11" d="M44.7922 22.1126C43.2036 21.9738 42.346 21.1829 41.9336 20.5995C41.3723 19.7924 41.1674 18.7639 41.2697 17.5937C41.6205 13.5818 45.8528 8.05621 51.6219 8.56032C53.336 8.7101 54.1408 9.62263 54.4513 10.4077C54.6274 10.8021 54.7199 11.1892 54.7634 11.6562C55.3945 10.7007 56.0785 9.6235 56.8497 8.5118C57.0952 8.11216 57.6497 8.03427 58.0077 8.27611C58.4074 8.52159 58.4854 9.07583 58.2434 9.43368C57.0375 11.1812 56.0134 12.7761 55.133 14.173C54.2072 15.6081 53.4214 16.8869 52.6538 17.9568C52.6047 18.0368 52.5592 18.0749 52.5101 18.1548C51.648 19.3428 51.8273 20.6639 52.2998 21.0421C52.6923 21.3711 53.3977 21.0117 54.1015 20.1889C54.3852 19.8347 54.936 19.7986 55.2903 20.0822C55.6447 20.3658 55.6808 20.9164 55.397 21.2706C53.7548 23.1905 52.2043 23.0971 51.3013 22.3444C50.787 21.9626 50.4619 21.3447 50.3187 20.5742C48.8258 21.7492 47.1333 22.3171 44.7922 22.1126ZM51.4376 10.1865C46.7136 9.77373 43.1888 14.4347 42.9038 17.6944C42.8343 18.4885 42.9849 19.1754 43.2828 19.6225C43.6188 20.1151 44.1441 20.3715 44.9384 20.4409C47.7393 20.6857 49.2594 19.6815 51.0745 17.2293C51.12 17.1912 51.1237 17.1494 51.1691 17.1112C52.7988 14.8534 53.527 12.3062 52.9605 11.0776C52.6699 10.5469 52.1901 10.2523 51.4376 10.1865Z" fill="#302A3E"/>
<path id="Vector_12" d="M49.4152 53.0466C47.8266 52.9078 46.969 52.117 46.5567 51.5336C45.9954 50.7265 45.7904 49.698 45.8927 48.5278C46.2436 44.5159 50.4758 38.9903 56.245 39.4944C57.959 39.6442 58.7638 40.5567 59.0743 41.3418C59.2505 41.7362 59.343 42.1233 59.3864 42.5903C60.0176 41.6348 60.7015 40.5576 61.4727 39.4459C61.7183 39.0462 62.2727 38.9684 62.6307 39.2102C63.0305 39.4557 63.1084 40.0099 62.8665 40.3678C61.6606 42.1152 60.6365 43.7102 59.7561 45.1071C58.8302 46.5422 58.0444 47.821 57.235 48.8873C57.1859 48.9672 57.1405 49.0053 57.0914 49.0853C56.2292 50.2732 56.4086 51.5943 56.881 51.9725C57.2735 52.3016 57.9789 51.9421 58.6827 51.1193C58.9665 50.7651 59.5172 50.729 59.8716 51.0126C60.2259 51.2962 60.262 51.8468 59.9783 52.201C58.336 54.1209 56.7856 54.0276 55.8825 53.2749C55.3683 52.8931 55.0432 52.2751 54.8999 51.5046C53.4489 52.6832 51.7981 53.2549 49.4152 53.0466ZM56.1025 41.1243C51.3785 40.7115 47.8537 45.3725 47.5686 48.6322C47.4992 49.4262 47.6497 50.1131 47.9476 50.5602C48.2837 51.0528 48.8089 51.3093 49.6032 51.3787C52.4042 51.6234 53.9242 50.6193 55.7394 48.167C55.7849 48.1289 55.7885 48.0871 55.834 48.049C57.4636 45.7911 58.1919 43.2439 57.6253 42.0153C57.3384 41.4428 56.855 41.19 56.1025 41.1243Z" fill="#302A3E"/>
<path id="Vector_13" d="M105.059 40.5587C103.47 40.4199 102.613 39.6291 102.2 39.0456C101.639 38.2386 101.434 37.2101 101.536 36.0399C101.887 32.028 106.119 26.5024 111.889 27.0065C113.603 27.1563 114.407 28.0688 114.718 28.8539C114.894 29.2483 114.987 29.6354 115.03 30.1024C115.661 29.1469 116.345 28.0697 117.116 26.958C117.362 26.5583 117.916 26.4804 118.274 26.7223C118.674 26.9678 118.752 27.522 118.51 27.8799C117.304 29.6273 116.28 31.2222 115.4 32.6192C114.474 34.0542 113.688 35.3331 112.879 36.3994C112.829 36.4793 112.784 36.5174 112.735 36.5974C111.873 37.7853 112.052 39.1064 112.525 39.4846C112.917 39.8136 113.622 39.4542 114.326 38.6314C114.61 38.2772 115.161 38.2411 115.515 38.5247C115.869 38.8083 115.906 39.3589 115.622 39.7131C113.98 41.633 112.429 41.5396 111.526 40.787C111.012 40.4051 110.687 39.7872 110.543 39.0167C109.089 40.2371 107.442 40.767 105.059 40.5587ZM111.742 28.6781C107.018 28.2653 103.494 32.9263 103.209 36.186C103.139 36.9801 103.29 37.667 103.588 38.1141C103.924 38.6067 104.449 38.8631 105.243 38.9325C108.044 39.1773 109.564 38.1731 111.379 35.7209C111.425 35.6828 111.428 35.641 111.474 35.6028C113.104 33.345 113.832 30.7978 113.265 29.5692C112.978 28.9967 112.495 28.7439 111.742 28.6781Z" fill="#302A3E"/>
</g>
<defs>
<clipPath id="clip0_208_9531">
<rect width="116.368" height="48.9141" fill="white" transform="matrix(0.996204 0.0870485 -0.0871089 0.996199 4.26074 0)"/>
</clipPath>
</defs>
</symbol>
<symbol id="formula2" width="132" height="111" viewBox="0 0 132 111" fill="none" xmlns="http://www.w3.org/2000/svg">
<g id="formule" clip-path="url(#clip0_208_9442)">
<g id="Group">
<path id="Vector" d="M97.7793 72.6146C97.851 72.7445 97.8795 72.8983 97.8218 73.0996C97.7402 73.2576 97.6586 73.4156 97.5292 73.487C97.3998 73.5584 97.2896 73.5627 97.1794 73.567C97.0692 73.5713 96.9352 73.5323 96.8203 73.4262L95.4277 72.3302L91.4591 74.5198L91.6007 76.3059C91.6054 76.4164 91.5669 76.5506 91.5284 76.6848C91.4661 76.7757 91.3605 76.8904 91.2743 76.938C91.1017 77.0332 90.9484 77.0613 90.7904 76.979C90.6564 76.94 90.4984 76.8576 90.4028 76.6844C90.355 76.5978 90.3311 76.5545 90.3264 76.444L89.6322 67.8444C89.6182 67.5131 89.743 67.3313 90.0018 67.1885C90.2606 67.0457 90.5049 67.0804 90.7538 67.2256L97.6837 72.4414C97.6644 72.5085 97.7554 72.5713 97.7793 72.6146ZM94.4944 71.6587L90.9339 68.8775L91.3454 73.3961L94.4944 71.6587Z" fill="#302A3E"/>
</g>
<g id="Group_2">
<path id="Vector_2" d="M51.6163 51.9834C51.3482 51.9053 51.0993 51.7602 50.9559 51.5004L41.8261 34.9564C41.6827 34.6966 41.6495 34.4324 41.7696 34.1402C41.8897 33.848 42.0576 33.6423 42.3595 33.4757C42.6615 33.3091 42.992 33.2963 43.3272 33.3938L63.7712 41.3791L55.932 27.1738C55.7886 26.914 55.7554 26.6499 55.8755 26.3576C55.9956 26.0654 56.1635 25.8598 56.4223 25.717C56.7242 25.5504 56.9877 25.518 57.299 25.5722C57.5672 25.6503 57.8161 25.7954 57.9595 26.0553L67.0892 42.5992C67.2326 42.859 67.2659 43.1232 67.1458 43.4154C67.0688 43.6839 66.8578 43.9133 66.5558 44.0799C66.2107 44.2703 65.9041 44.3265 65.6552 44.1813L45.1681 36.2198L52.9833 50.3818C53.1267 50.6416 53.16 50.9058 53.0399 51.198C52.9629 51.4664 52.7519 51.6958 52.4499 51.8624C52.1911 52.0052 51.9276 52.0376 51.6163 51.9834Z" fill="#302A3E"/>
</g>
<g id="Group_3">
<path id="Vector_3" d="M69.235 83.9016C68.9668 83.8235 68.7179 83.6784 68.5745 83.4185L59.4208 66.8313C59.2774 66.5714 59.2442 66.3073 59.3643 66.0151C59.4413 65.7466 59.6523 65.5172 59.9542 65.3506C60.2562 65.184 60.5867 65.1711 60.9219 65.2687L81.3659 73.254L73.5267 59.0487C73.3833 58.7889 73.3501 58.5247 73.4702 58.2325C73.5903 57.9403 73.7582 57.7346 74.017 57.5918C74.319 57.4252 74.5825 57.3929 74.8937 57.4471C75.1619 57.5251 75.4108 57.6703 75.5542 57.9301L84.684 74.4741C84.8274 74.7339 84.8606 74.9981 84.7405 75.2903C84.6636 75.5587 84.4525 75.7881 84.1506 75.9547C83.8055 76.1451 83.4988 76.2013 83.2499 76.0562L62.8059 68.0709L70.6212 82.2328C70.7646 82.4927 70.7978 82.7568 70.6777 83.0491C70.6008 83.3175 70.3898 83.5469 70.0878 83.7135C69.8097 83.9234 69.5463 83.9558 69.235 83.9016Z" fill="#302A3E"/>
</g>
<g id="Group_4">
<path id="Vector_4" d="M37.6319 68.3432C37.4308 68.2847 37.3159 68.1785 37.2203 68.0053C37.1247 67.8321 37.0723 67.635 37.1539 67.477C37.2116 67.2757 37.3171 67.161 37.5328 67.042L43.4858 63.7576C43.6583 63.6624 43.8547 63.6105 44.0559 63.669C44.257 63.7276 44.3718 63.8337 44.4674 64.0069C44.563 64.1802 44.5916 64.3339 44.5339 64.5352C44.4761 64.7365 44.3706 64.8512 44.155 64.9702L38.1589 68.2784C37.9863 68.3736 37.833 68.4017 37.6319 68.3432ZM39.6873 72.0677C39.4862 72.0092 39.3713 71.9031 39.2757 71.7299C39.1801 71.5566 39.1277 71.3596 39.2093 71.2016C39.267 71.0002 39.3725 70.8855 39.5882 70.7665L45.5411 67.4822C45.7137 67.387 45.9101 67.3351 46.1113 67.3936C46.3124 67.4521 46.4272 67.5582 46.5228 67.7315C46.6184 67.9047 46.647 68.0584 46.5893 68.2598C46.5315 68.4611 46.426 68.5758 46.2103 68.6948L40.2574 71.9792C40.0417 72.0982 39.8453 72.1501 39.6873 72.0677Z" fill="#302A3E"/>
</g>
<g id="Group_5">
<path id="Vector_5" d="M80.421 44.735C80.2198 44.6765 80.105 44.5704 80.0094 44.3972C79.9138 44.2239 79.8613 44.0269 79.943 43.8689C80.0007 43.6675 80.1062 43.5528 80.3219 43.4338L86.2748 40.1494C86.4474 40.0542 86.6438 40.0024 86.8449 40.0609C87.046 40.1194 87.1609 40.2255 87.2565 40.3988C87.3521 40.572 87.3806 40.7257 87.3229 40.9271C87.2652 41.1284 87.1597 41.2431 86.944 41.3621L80.9911 44.6465C80.7754 44.7655 80.6221 44.7936 80.421 44.735ZM82.4763 48.4596C82.2752 48.4011 82.1604 48.2949 82.0648 48.1217C81.9692 47.9485 81.9167 47.7514 81.9984 47.5934C82.0561 47.3921 82.1616 47.2774 82.3773 47.1584L88.3302 43.874C88.5028 43.7788 88.6992 43.7269 88.9003 43.7854C89.1014 43.844 89.2163 43.9501 89.3119 44.1233C89.4075 44.2966 89.436 44.4503 89.3783 44.6516C89.3206 44.8529 89.2151 44.9676 88.9994 45.0866L83.0465 48.371C82.8308 48.49 82.6343 48.5419 82.4763 48.4596Z" fill="#302A3E"/>
</g>
<path id="Vector_6" d="M71.4633 52.0513L55.5456 60.8335C55.2005 61.0239 54.7983 60.9068 54.6071 60.5604C54.4159 60.2139 54.5313 59.8112 54.8764 59.6208L70.7509 50.8625C71.096 50.6721 71.4982 50.7891 71.6894 51.1356C71.8806 51.4821 71.8083 51.8609 71.4633 52.0513Z" fill="#302A3E"/>
<g id="Group_6">
<path id="Vector_7" d="M101.891 8.48349C102.906 8.48818 103.869 8.80462 104.73 9.34617C105.616 9.93104 106.333 10.7215 106.931 11.8042L110.683 18.6037C110.826 18.8636 110.86 19.1277 110.783 19.3961C110.706 19.6646 110.495 19.894 110.236 20.0368C109.934 20.2034 109.67 20.2358 109.359 20.1815C109.091 20.1035 108.842 19.9584 108.699 19.6985L104.946 12.899C104.325 11.773 103.545 11.0734 102.539 10.7808C101.534 10.4882 100.566 10.5701 99.5309 11.1413C98.4525 11.7363 97.7809 12.5588 97.4492 13.5892C97.1175 14.6196 97.2935 15.6524 97.891 16.7351L97.9149 16.7784L101.667 23.5779C101.811 23.8377 101.844 24.1019 101.767 24.3703C101.69 24.6388 101.479 24.8682 101.22 25.011C100.918 25.1776 100.655 25.21 100.343 25.1557C100.075 25.0777 99.8263 24.9325 99.6829 24.6727L95.9306 17.8732C95.3092 16.7472 94.5293 16.0476 93.5237 15.755C92.5182 15.4624 91.5505 15.5443 90.5152 16.1155C89.4368 16.7105 88.7413 17.4896 88.4096 18.5201C88.0779 19.5505 88.1869 20.5638 88.7366 21.5599L92.5845 28.5326C92.7279 28.7924 92.7611 29.0566 92.6842 29.325C92.6072 29.5934 92.3962 29.8228 92.1374 29.9656C91.8354 30.1322 91.5719 30.1646 91.2606 30.1104C90.9925 30.0324 90.7436 29.8872 90.6002 29.6274L84.5057 18.5836C84.3623 18.3238 84.3291 18.0596 84.4492 17.7674C84.5261 17.499 84.7371 17.2696 85.0391 17.103C85.3411 16.9364 85.6045 16.904 85.8727 16.982C86.1408 17.06 86.3466 17.229 86.49 17.4888L86.7768 18.0085C86.9645 17.227 87.3102 16.5279 87.857 15.8872C88.3607 15.2704 88.9984 14.6925 89.7749 14.2641C90.7239 13.7405 91.663 13.5049 92.6546 13.4663C93.603 13.4514 94.5176 13.6813 95.3745 14.1124C95.5098 13.1339 95.8461 12.2138 96.4075 11.3957C96.9689 10.5775 97.7553 9.86115 98.7474 9.31375C99.8498 8.76206 100.875 8.4788 101.891 8.48349Z" fill="#302A3E"/>
</g>
<g id="Group_7">
<path id="Vector_8" d="M119.621 32.7683C119.889 32.8463 120.138 32.9915 120.282 33.2513L129.411 49.7953C129.555 50.0551 129.588 50.3193 129.468 50.6115C129.391 50.8799 129.18 51.1094 128.921 51.2522C128.619 51.4188 128.356 51.4511 128.044 51.3969C127.733 51.3427 127.527 51.1737 127.384 50.9139L120.047 37.6181L120.271 54.9513C120.223 55.3734 119.992 55.67 119.647 55.8604C119.216 56.0984 118.818 56.0917 118.431 55.7971L104.119 46.6882L111.361 59.8107C111.504 60.0706 111.537 60.3347 111.417 60.627C111.34 60.8954 111.129 61.1248 110.827 61.2914C110.569 61.4342 110.262 61.4904 109.994 61.4124C109.682 61.3581 109.477 61.1892 109.333 60.9293L100.18 44.3421C100.036 44.0822 100.003 43.8181 100.123 43.5259C100.243 43.2336 100.411 43.028 100.67 42.8852C101.058 42.671 101.456 42.6777 101.839 42.8618L118.347 53.3009L118.145 33.8655C118.193 33.4433 118.399 33.1035 118.788 32.8893C119.046 32.7465 119.31 32.7141 119.621 32.7683Z" fill="#302A3E"/>
</g>
<path id="Vector_9" d="M113.524 28.8453L97.6491 37.6036C97.304 37.794 96.9018 37.677 96.7106 37.3305C96.5194 36.984 96.6348 36.5814 96.9799 36.391L112.854 27.6326C113.2 27.4422 113.602 27.5593 113.793 27.9057C113.984 28.2522 113.869 28.6549 113.524 28.8453Z" fill="#302A3E"/>
<path id="Vector_10" d="M31.4144 90.9262C31.3713 90.95 31.4144 90.9262 31.4144 90.9262C31.0693 91.1166 30.6479 91.0666 30.3319 90.902L12.2447 78.6221C11.7901 78.308 11.6519 77.6498 11.9638 77.1953C12.2757 76.7407 12.932 76.6046 13.3867 76.9187L29.928 88.1306C29.9193 83.2204 29.3359 69.927 23.2104 64.9453C20.8799 63.0674 18.0783 62.5793 14.5661 63.5566C14.0199 63.6885 13.455 63.3787 13.3216 62.8309C13.1881 62.2831 13.4953 61.7181 14.0415 61.5863C18.1669 60.4966 21.7012 61.0889 24.4911 63.3913C32.8323 70.1447 31.9432 89.3351 31.9327 90.1318C31.9466 90.4631 31.7164 90.7596 31.4144 90.9262Z" fill="#302A3E"/>
</g>
<defs>
<clipPath id="clip0_208_9442">
<rect width="116.566" height="61.6342" fill="white" transform="matrix(0.875578 -0.483077 0.483162 0.875531 0.0859375 56.7996)"/>
</clipPath>
</defs>
</symbol>


<symbol id="teach" width="518" height="373" viewBox="0 0 518 373" fill="none" xmlns="http://www.w3.org/2000/svg">
<path d="M235.218 8.11379C224.26 -5.35713 210.003 3.65378 204.433 8.09432C202.888 9.3278 200.843 9.68486 198.941 9.15251C175.044 2.45925 152.445 19.2865 149.68 43.5861C146.972 67.3079 168.623 66.2562 168.623 66.2562C191.54 62.5947 203.524 48.1046 207.783 41.8203C211.672 46.8386 219.384 47.8514 225.195 49.8055C225.565 49.9288 225.935 50.0392 226.318 50.1431C227.188 49.9288 228.142 49.9029 228.882 50.1755C231.544 51.1623 234.705 51.7855 235.997 54.694C236.296 55.3756 236.51 56.0183 236.601 56.674C237.802 59.4396 238.094 62.6467 239.198 65.4382C239.516 66.2497 240.113 66.9444 240.84 67.4897C241.743 65.9187 242.502 64.2697 243.58 62.809C245.3 60.4719 247.345 58.9592 250.078 57.9724C250.325 57.8815 250.572 57.8296 250.825 57.7907C250.845 57.6284 250.858 57.4661 250.858 57.3038L251.825 57.7517C251.825 57.7517 251.864 57.7517 251.877 57.7517C251.838 57.2973 249.04 25.1034 235.218 8.11379Z" fill="#CDE1A4"/>
<path d="M457.043 79.9155C459.562 85.0572 462.075 87.2061 462.231 85.3169C463.445 70.5216 461.549 42.937 431.452 39.0288C431.452 39.0288 415.715 33.4847 398.472 37.2565C382.178 40.8206 369.414 53.5515 365.266 69.7101C364.935 70.989 364.591 72.3718 364.234 73.8585C361.507 85.1546 347.387 90.6014 347.387 90.6014C347.387 90.6014 325.801 98.8722 330.034 123.691C330.034 123.691 330.573 127.93 335.279 137.883C339.986 147.835 327.859 169.966 326.671 179.847C325.463 189.936 327.34 194.727 332.585 201.316H333.312C334.747 201.784 336.688 198.947 338.149 197.778C345.465 191.935 353.1 188.293 361.533 184.229C365.019 182.548 371.92 180.672 374.738 178.003C375.218 177.549 374.835 174.517 375.238 171.94C375.497 171.752 375.77 171.557 376.03 171.362C377.335 167.103 381.918 164.532 385.677 162.403C386.488 161.111 387.092 159.709 387.397 158.177C388.092 154.678 387.67 149.62 387.319 146.147C386.858 141.596 386.449 138.629 387.3 134.137C387.761 131.709 388.637 128.742 386.066 128.06C380.795 126.671 375.926 122.172 375.043 116.998L375.127 116.829C374.9 116.251 374.79 115.641 374.848 115.024C375.309 110.103 377.51 105.819 382.463 104.202C383.372 103.904 384.275 103.923 385.118 104.163C387.144 103.923 388.916 104.644 390.903 106.598C393.279 108.935 396.713 110.305 399.667 109.324C400.797 107.312 402.426 105.682 403.822 103.878C403.887 103.696 403.952 103.52 404.017 103.332C405.562 98.8397 407.133 94.7693 407.217 89.9457C407.237 88.7706 408.178 88.1734 409.093 88.1669C409.723 87.9786 410.418 88.0695 410.859 88.4655C414.839 87.9137 418.792 86.2128 422.019 82.4734C433.049 69.6971 434.425 59.1411 440.073 57.7258C444.78 56.5508 448.63 62.7961 457.017 79.9155H457.043Z" fill="#B1A5CD"/>
<path d="M480.48 208.678C480.447 207.432 480.064 206.244 479.792 205.036C479.688 204.575 479.746 204.101 479.941 203.699C479.097 200.206 478.162 196.726 476.604 193.526C475.156 190.533 473.261 187.761 471.443 184.95C471.086 184.43 470.729 183.905 470.359 183.398C468.249 180.522 466.022 177.542 464.905 174.108C464.464 172.751 464.328 171.472 464.341 170.219C462.964 165.376 462.828 161.027 464.464 156.132C464.341 155.236 464.925 154.067 465.022 153.178C465.25 151.159 465.814 148.965 466.451 146.881C466.282 146.627 466.171 146.316 466.165 145.933C466.145 144.531 465.886 143.161 465.756 141.771C465.704 141.239 465.964 140.752 466.353 140.408C466.003 138.24 465.561 136.084 464.944 133.949C464.023 130.761 463.036 125.016 460.802 122.432C460.601 122.205 460.439 121.964 460.29 121.724C459.53 121.854 458.803 122.146 458.186 122.581C458.043 127.216 456.739 131.339 454.583 135.539C452.415 139.772 450.565 144.251 447.825 148.16C445.339 151.711 441.943 154.132 437.847 155.716C434.821 156.885 431.361 156.723 428.213 156.703C427.946 156.904 428.316 158.04 428.115 158.294C428.375 160.241 428.278 162.137 428.005 164.013C428.083 164.13 428.174 164.24 428.265 164.351C428.745 164.266 429.264 164.396 429.712 164.864C430.654 165.85 431.959 166.175 433.108 166.85C434.283 167.538 435.224 168.447 436.061 169.505C436.977 170.661 437.704 171.765 438.152 172.946C438.171 172.933 438.191 172.927 438.217 172.914C438.197 172.933 438.178 172.953 438.165 172.972C438.223 173.128 438.275 173.29 438.327 173.452C438.399 173.569 438.463 173.686 438.535 173.803C438.704 174.102 438.84 174.407 438.944 174.718C439.606 173.537 439.087 174.193 438.704 175.699C438.808 176.419 438.509 176.432 438.347 177.159C438.314 177.296 438.983 178.049 438.937 178.179C438.976 178.347 439.028 178.51 439.113 178.646C439.113 178.692 439.126 178.737 439.132 178.776C439.178 178.795 439.23 178.815 439.275 178.841C440.496 179.542 441.768 180.133 443.027 180.756C443.339 180.912 443.566 181.165 443.716 181.464C447.338 183.931 451.019 186.352 454.33 189.241C457.375 191.896 460.653 194.623 463.471 197.551C467.45 200.401 471.384 203.309 475.117 206.477C475.793 206.425 476.513 206.737 476.831 207.334C476.844 207.36 476.896 207.484 476.948 207.568C476.968 207.587 476.987 207.607 477.013 207.633C477.156 207.795 477.312 207.938 477.474 208.081C477.812 208.386 478.162 208.678 478.474 209.009C479.181 209.197 479.87 209.197 480.519 209.055C480.486 208.925 480.473 208.788 480.467 208.646L480.48 208.678Z" fill="#B1A5CD"/>
<path d="M68.815 235.016L43.6 185.683L5.64769 107.669C5.46591 107.292 5.19325 106.974 4.84917 106.734C3.38198 105.715 1.34998 106.565 1.05784 108.331L1.03187 108.474C0.953966 108.954 1.01889 109.454 1.22663 109.896L43.5286 202.381C45.6839 202.446 47.7938 202.705 49.7934 203.686C50.1894 203.88 50.4426 204.153 50.5854 204.458C52.0526 205.348 52.0461 205.575 52.137 207.464C52.2084 209.074 50.0595 210.905 48.7676 211.879C49.7999 212.08 53.0394 213.463 53.9807 213.93C56.558 215.215 56.3308 218.072 55.0973 220.409C54.526 221.493 53.4938 221.87 52.4421 222.24C52.9615 222.084 54.3183 222.818 54.8442 222.694C57.6552 222.019 60.3039 223.564 61.1868 226.297C61.7452 228.031 59.856 228.998 58.5965 230.303C57.1488 229.394 58.3758 230.361 58.4083 230.394C59.421 231.322 61.4141 233.698 61.4725 235.029C61.5309 236.314 60.2845 236.873 59.3951 237.769C59.2652 237.898 59.6872 238.905 59.5444 239.015C59.6093 239.164 59.6547 239.249 59.6547 239.249C60.6026 241.307 63.0436 242.203 65.1015 241.248L66.8219 240.45C68.8734 239.502 69.7693 237.068 68.8214 235.01L68.815 235.016Z" fill="#CDE1A4"/>
<path d="M248.047 269.826H374.018C377.452 269.826 380.497 272.04 381.562 275.306L409.497 361.325C411.159 366.447 407.341 371.705 401.953 371.705H275.3C271.84 371.705 268.782 369.466 267.737 366.168L240.484 280.149C238.861 275.033 242.678 269.82 248.047 269.82V269.826Z" fill="#F5B1B2"/>
<path d="M280.215 192.714C283.097 192.714 285.434 190.377 285.434 187.495C285.434 184.612 283.097 182.275 280.215 182.275C277.332 182.275 274.995 184.612 274.995 187.495C274.995 190.377 277.332 192.714 280.215 192.714Z" stroke="#302A3E" stroke-width="1.2984" stroke-linecap="round" stroke-linejoin="round"/>
<path d="M297.159 198.94C300.042 198.94 302.379 196.603 302.379 193.72C302.379 190.838 300.042 188.501 297.159 188.501C294.276 188.501 291.939 190.838 291.939 193.72C291.939 196.603 294.276 198.94 297.159 198.94Z" stroke="#302A3E" stroke-width="1.2984" stroke-linecap="round" stroke-linejoin="round"/>
<path d="M291.692 178.782C294.575 178.782 296.912 176.445 296.912 173.563C296.912 170.68 294.575 168.343 291.692 168.343C288.81 168.343 286.473 170.68 286.473 173.563C286.473 176.445 288.81 178.782 291.692 178.782Z" stroke="#302A3E" stroke-width="1.2984" stroke-linecap="round" stroke-linejoin="round"/>
<path d="M284.986 189.604L292.199 192.084" stroke="#302A3E" stroke-width="1.2984" stroke-linecap="round" stroke-linejoin="round"/>
<path d="M293.128 178.86L295.816 187.521" stroke="#302A3E" stroke-width="1.2984" stroke-linecap="round" stroke-linejoin="round"/>
<path d="M288.304 177.705L284.006 182.859" stroke="#302A3E" stroke-width="1.2984" stroke-linecap="round" stroke-linejoin="round"/>
<path d="M434.107 90.4974C435.107 90.0949 435.944 89.2899 436.172 88.2382C436.379 87.2774 436.094 86.1283 434.036 85.4206C431.173 84.4403 425.726 86.5438 422.824 87.8422C422.065 88.1797 422.097 89.2769 422.883 89.5625C425.596 90.5493 430.543 91.9256 434.101 90.4974H434.107Z" stroke="#302A3E" stroke-width="1.2984" stroke-linecap="round" stroke-linejoin="round"/>
<path d="M449.656 86.0115C448.857 86.1673 448.117 86.6412 447.799 87.3878C447.507 88.0694 447.552 88.9653 448.974 89.7833C450.961 90.9194 455.304 90.1469 457.641 89.6016C458.251 89.4587 458.387 88.6407 457.849 88.3161C455.979 87.193 452.506 85.4597 449.656 86.005V86.0115Z" stroke="#302A3E" stroke-width="1.2984" stroke-linecap="round" stroke-linejoin="round"/>
<path d="M459.44 100.294C459.44 100.294 453.227 95.5223 447.793 100.924" stroke="#302A3E" stroke-width="1.2984" stroke-linecap="round" stroke-linejoin="round"/>
<path d="M417.43 99.0864C417.43 99.0864 428.09 94.8406 433.9 100.748" stroke="#302A3E" stroke-width="1.2984" stroke-linecap="round" stroke-linejoin="round"/>
<path d="M425.116 104.304C426.909 104.196 428.265 102.481 428.145 100.474C428.025 98.4658 426.473 96.9253 424.68 97.0328C422.887 97.1402 421.531 98.855 421.651 100.863C421.772 102.871 423.323 104.411 425.116 104.304Z" fill="black"/>
<path d="M454.444 101.348C454.565 99.6783 453.414 98.2336 451.873 98.1215C450.332 98.0094 448.984 99.2723 448.863 100.942C448.741 102.612 449.892 104.057 451.433 104.169C452.975 104.281 454.322 103.018 454.444 101.348Z" fill="black"/>
<path d="M443.742 103.585C443.742 103.585 443.32 107.552 444.514 113.44C445.345 117.537 448.306 122.756 447.241 123.957C444.969 126.522 437.522 124.522 436.23 123.185" stroke="#302A3E" stroke-width="1.2984" stroke-linecap="round" stroke-linejoin="round"/>
<path d="M444.08 135.929C444.08 135.929 435.237 140.733 426.097 131.696" stroke="#302A3E" stroke-width="1.2984" stroke-linecap="round" stroke-linejoin="round"/>
<path d="M391.507 83.8172C391.507 83.8172 411.009 94.7108 422.039 81.9345C433.069 69.1582 434.445 58.6022 440.093 57.187C444.8 56.0119 448.65 62.2572 457.038 79.3766C459.556 84.5183 462.069 86.6672 462.225 84.778C463.439 69.9827 461.543 42.3982 431.446 38.49C431.446 38.49 415.709 32.9458 398.467 36.7176C382.172 40.2818 369.408 53.0126 365.26 69.1712C364.929 70.4501 364.585 71.8329 364.228 73.3196C361.501 84.6157 347.381 90.0625 347.381 90.0625C347.381 90.0625 325.795 98.3333 330.028 123.152C330.028 123.152 330.567 127.392 335.273 137.344C339.98 147.296 327.853 169.427 326.665 179.308C325.457 189.397 327.334 194.188 332.579 200.777" stroke="#302A3E" stroke-width="1.2984" stroke-linecap="round" stroke-linejoin="round"/>
<path d="M440.1 57.187C440.1 57.187 442.398 41.8399 426.94 37.2435" stroke="#302A3E" stroke-width="1.2984" stroke-linecap="round" stroke-linejoin="round"/>
<path d="M459.277 120.685C459.277 120.685 468.847 133.65 465.62 150.191C462.394 166.733 461.991 168.148 468.847 180.451C475.709 192.76 479.74 198.81 480.545 209.301" stroke="#302A3E" stroke-width="1.2984" stroke-linecap="round" stroke-linejoin="round"/>
<path d="M407.405 88.1409C407.405 88.1409 405.88 109.065 397.025 110.025C395.7 110.168 394.395 109.532 393.61 108.454C391.922 106.15 387.696 101.859 380.885 104.39C372.212 107.617 373.355 123.49 383.171 127.119C383.171 127.119 386.871 128.735 391.506 128.8" stroke="#302A3E" stroke-width="1.2984" stroke-linecap="round" stroke-linejoin="round"/>
<path d="M383.133 110.09C383.133 110.09 389.157 112.888 389.047 120.685" stroke="#302A3E" stroke-width="1.2984" stroke-linecap="round" stroke-linejoin="round"/>
<path d="M387.339 128.807V166.46C387.339 167.713 387.534 168.953 387.93 170.141C389.26 174.141 401.284 182.762 406.354 186.261C407.633 187.144 409.133 186.709 410.515 185.988C421.539 180.25 426.155 177.406 427.589 173.238C428.018 171.998 428.232 170.7 428.232 169.388V156.709" stroke="#302A3E" stroke-width="1.2984" stroke-linecap="round" stroke-linejoin="round"/>
<path d="M402.875 140.811C402.875 140.811 413.769 156.748 431.823 156.852C449.877 156.956 458.148 128.002 460.368 115.394C462.589 102.787 462.225 84.7845 462.225 84.7845" stroke="#302A3E" stroke-width="1.2984" stroke-linecap="round" stroke-linejoin="round"/>
<path d="M387.34 161.085C387.34 161.085 380.082 164.753 375.563 171.953C374.512 173.628 374.486 175.75 375.466 177.471C378.426 182.671 385.749 194.188 395.442 200.018C397.467 201.238 400.129 200.232 400.817 197.966C401.856 194.551 403.907 189.819 407.79 186.761C407.79 186.761 413.035 193.402 416.307 198.992C416.956 200.102 418.417 200.42 419.469 199.68C424.377 196.239 436.64 186.657 438.776 175.445C438.977 174.4 438.802 173.309 438.237 172.401C437.134 170.622 434.485 167.512 428.233 163.916" stroke="#302A3E" stroke-width="1.2984" stroke-linecap="round" stroke-linejoin="round"/>
<path d="M384.989 167.674L390.423 173.608" stroke="#302A3E" stroke-width="1.2984" stroke-linecap="round" stroke-linejoin="round"/>
<path d="M375.465 177.464C375.465 177.464 349.731 188.89 322.075 208.347C317.375 211.651 313.752 216.261 311.597 221.584C308.215 229.926 304.3 244.709 303.015 269.826" stroke="#302A3E" stroke-width="1.2984" stroke-linecap="round" stroke-linejoin="round"/>
<path d="M438.27 177.464L476.131 206.549C483.941 212.547 489.836 220.682 493.108 229.972C500.742 251.636 514.427 292.328 517.089 312.771C517.517 316.082 515.771 319.269 512.772 320.737C506.001 324.041 492.4 329.241 474.495 328.878" stroke="#302A3E" stroke-width="1.2984" stroke-linecap="round" stroke-linejoin="round"/>
<path d="M474.897 242.612C474.897 242.612 472.014 262.977 472.274 283.343C472.78 323.515 475.903 338.018 470.859 354.157C470.859 354.157 462.802 367.557 414.787 367.083" stroke="#302A3E" stroke-width="1.2984" stroke-linecap="round" stroke-linejoin="round"/>
<path d="M248.047 269.826H374.018C377.452 269.826 380.497 272.04 381.562 275.306L409.497 361.325C411.159 366.447 407.341 371.705 401.953 371.705H275.3C271.84 371.705 268.782 369.466 267.737 366.168L240.484 280.149C238.861 275.033 242.678 269.82 248.047 269.82V269.826Z" stroke="#302A3E" stroke-width="1.2984" stroke-linecap="round" stroke-linejoin="round"/>
<path d="M397.999 325.911H452.311C454.557 325.911 455.583 328.722 453.856 330.163L414.158 367.674C411.418 370.264 407.795 371.706 404.03 371.706H399.323" stroke="#302A3E" stroke-width="1.2984" stroke-linecap="round" stroke-linejoin="round"/>
<path d="M399.927 331.864H425.116C427.479 331.864 428.479 334.87 426.589 336.285L406.295 351.463" stroke="#302A3E" stroke-width="1.2984" stroke-linecap="round" stroke-linejoin="round"/>
<path d="M343.939 247.435C343.939 247.435 347.166 255.907 346.562 269.826" stroke="#302A3E" stroke-width="1.2984" stroke-linecap="round" stroke-linejoin="round"/>
<path d="M473.184 290.094C473.184 290.094 492.27 291.198 509.604 282.836" stroke="#302A3E" stroke-width="1.2984" stroke-linecap="round" stroke-linejoin="round"/>
<path d="M495.989 327.599C496.21 339.213 500.183 350.301 501.514 361.773" stroke="#302A3E" stroke-width="1.2984" stroke-linecap="round" stroke-linejoin="round"/>
<path d="M307.053 328.384C310.638 328.384 313.545 325.477 313.545 321.892C313.545 318.307 310.638 315.4 307.053 315.4C303.467 315.4 300.561 318.307 300.561 321.892C300.561 325.477 303.467 328.384 307.053 328.384Z" fill="white" stroke="#302A3E" stroke-width="1.2984" stroke-linecap="round" stroke-linejoin="round"/>
<path d="M328.112 336.123C331.698 336.123 334.604 333.216 334.604 329.631C334.604 326.045 331.698 323.139 328.112 323.139C324.527 323.139 321.62 326.045 321.62 329.631C321.62 333.216 324.527 336.123 328.112 336.123Z" fill="white" stroke="#302A3E" stroke-width="1.2984" stroke-linecap="round" stroke-linejoin="round"/>
<path d="M321.321 311.07C324.907 311.07 327.813 308.163 327.813 304.578C327.813 300.993 324.907 298.086 321.321 298.086C317.736 298.086 314.829 300.993 314.829 304.578C314.829 308.163 317.736 311.07 321.321 311.07Z" fill="white" stroke="#302A3E" stroke-width="1.2984" stroke-linecap="round" stroke-linejoin="round"/>
<path d="M312.986 324.521L321.952 327.599" stroke="#302A3E" stroke-width="1.2984" stroke-linecap="round" stroke-linejoin="round"/>
<path d="M323.107 311.161L326.444 321.931" stroke="#302A3E" stroke-width="1.2984" stroke-linecap="round" stroke-linejoin="round"/>
<path d="M317.108 309.719L311.765 316.134" stroke="#302A3E" stroke-width="1.2984" stroke-linecap="round" stroke-linejoin="round"/>
<path d="M188.21 70.7942C189.008 70.0671 189.508 69.0284 189.359 67.9572C189.222 66.9834 188.554 66.0031 186.379 66.0616C183.354 66.1395 178.978 70.0087 176.712 72.229C176.115 72.8133 176.531 73.826 177.368 73.8195C180.257 73.8001 185.373 73.3716 188.216 70.7942H188.21Z" stroke="#302A3E" stroke-width="1.2984" stroke-linecap="round" stroke-linejoin="round"/>
<path d="M206.368 57.2714C205.452 57.8362 204.764 58.771 204.719 59.8487C204.673 60.829 205.154 61.9196 207.303 62.2572C210.295 62.7311 215.301 59.7253 217.936 57.9595C218.625 57.4986 218.404 56.4209 217.586 56.2716C214.742 55.7652 209.64 55.2523 206.368 57.2649V57.2714Z" stroke="#302A3E" stroke-width="1.2984" stroke-linecap="round" stroke-linejoin="round"/>
<path d="M188.045 83.047C189.838 82.9396 191.194 81.2248 191.074 79.2169C190.953 77.2091 189.402 75.6686 187.609 75.776C185.816 75.8835 184.46 77.5983 184.58 79.6061C184.701 81.614 186.252 83.1545 188.045 83.047Z" fill="black"/>
<path d="M218.565 73.5774C220.358 73.47 221.714 71.7552 221.594 69.7473C221.474 67.7395 219.923 66.199 218.129 66.3064C216.336 66.4139 214.98 68.1287 215.101 70.1365C215.221 72.1444 216.772 73.6849 218.565 73.5774Z" fill="black"/>
<path d="M332.793 131.696C332.793 131.696 329.794 128.833 293.659 124.535L264.88 120.445L254.525 80.9023" stroke="#302A3E" stroke-width="1.2984" stroke-linecap="round" stroke-linejoin="round"/>
<path d="M250.079 80.9023C250.079 80.9023 258.284 81.8436 260.167 73.774C262.05 65.7045 258.421 58.3036 250.884 57.6349C243.353 56.9597 240.931 69.288 240.931 69.288L235.764 55.5445C234.738 52.8113 232.362 50.8183 229.499 50.2665C223.319 49.0784 212.548 46.5011 207.984 42.3073" stroke="#302A3E" stroke-width="1.2984" stroke-linecap="round" stroke-linejoin="round"/>
<path d="M210.003 38.3342C210.003 38.3342 197.675 61.608 168.623 66.2498C168.623 66.2498 146.972 67.3015 149.68 43.5797C152.452 19.2801 175.05 2.45284 198.941 9.14611C200.85 9.67845 202.888 9.32788 204.433 8.08791C209.997 3.64737 224.253 -5.36354 235.218 8.10738C249.137 25.2138 251.877 57.7648 251.877 57.7648" stroke="#302A3E" stroke-width="1.2984" stroke-linecap="round" stroke-linejoin="round"/>
<path d="M165.402 66.0551C165.402 66.0551 174.634 105.617 196.681 125.015C213.495 139.811 233.263 131.105 242.677 118.958" stroke="#302A3E" stroke-width="1.2984" stroke-linecap="round" stroke-linejoin="round"/>
<path d="M199.811 77.4745C199.811 77.4745 201.726 81.7138 203.141 89.1731C203.92 93.302 204.641 96.4701 205.128 98.4826C205.517 100.093 207.088 101.118 208.718 100.82C210.347 100.521 212.801 99.7616 215.748 98.0477" stroke="#302A3E" stroke-width="1.2984" stroke-linecap="round" stroke-linejoin="round"/>
<path d="M251.091 63.1466C251.091 63.1466 248.267 65.9057 250.825 73.8389" stroke="#302A3E" stroke-width="1.2984" stroke-linecap="round" stroke-linejoin="round"/>
<path d="M177.621 81.3567C177.621 81.3567 184.379 75.5074 192.903 76.3643" stroke="#302A3E" stroke-width="1.2984" stroke-linecap="round" stroke-linejoin="round"/>
<path d="M209.75 72.0732C209.75 72.0732 213.684 65.2111 226.545 66.5744" stroke="#302A3E" stroke-width="1.2984" stroke-linecap="round" stroke-linejoin="round"/>
<path d="M207.783 113.765C207.783 113.765 222.643 116.589 227.824 102.735" stroke="#302A3E" stroke-width="1.2984" stroke-linecap="round" stroke-linejoin="round"/>
<path d="M264.874 120.445C264.874 120.445 264.27 145.868 242.684 145.868C242.684 145.868 229.921 148.731 220.111 132.52" stroke="#302A3E" stroke-width="1.2984" stroke-linecap="round" stroke-linejoin="round"/>
<path d="M223.027 136.701C223.027 136.701 173.824 172.959 167.371 185.034C160.917 197.109 138.585 292.873 138.585 292.873" stroke="#302A3E" stroke-width="1.2984" stroke-linecap="round" stroke-linejoin="round"/>
<path d="M192.649 230.465L203.692 242.268C205.796 244.521 207.243 247.293 207.886 250.305C212.716 273.111 230.874 347.399 235.263 368.732" stroke="#302A3E" stroke-width="1.2984" stroke-linecap="round" stroke-linejoin="round"/>
<path d="M273.223 121.789C277.735 134.487 268.426 149.386 252.429 155.073C236.433 160.76 219.807 155.073 215.295 142.382" stroke="#302A3E" stroke-width="1.2984" stroke-linecap="round" stroke-linejoin="round"/>
<path d="M206.471 246.286C206.471 246.286 190.501 334.272 174.894 348.815C159.294 363.35 150.952 368.998 130.508 352.593C110.39 336.447 79.8577 312.226 62.2254 258.147C61.8099 256.875 62.8097 255.953 64.0756 255.518C70.4897 253.298 76.4883 250.181 83.4478 244.566C84.2138 243.949 84.7462 243.073 85.707 243.28C89.9787 244.183 101.943 249.376 122.835 277.811C122.835 277.811 138.37 295.035 149.465 304.578" stroke="#302A3E" stroke-width="1.2984" stroke-linecap="round" stroke-linejoin="round"/>
<path d="M64.8691 265.769C64.8691 265.769 89.4479 265.347 92.8302 246.462" stroke="#302A3E" stroke-width="1.2984" stroke-linecap="round" stroke-linejoin="round"/>
<path d="M84.2203 242.982C84.2203 242.982 80.5328 231.803 79.0007 225.051C77.4686 218.306 79.3967 214.255 69.373 205.776C59.3494 197.291 63.0238 190.935 59.3494 189.007C55.5321 187.008 50.3125 193.545 50.5072 198.168" stroke="#302A3E" stroke-width="1.2984" stroke-linecap="round" stroke-linejoin="round"/>
<path d="M63.8036 255.018C63.8036 255.018 60.3174 253.772 52.0271 248.377C43.8861 243.079 33.5898 238.132 30.0516 212.132C29.7335 209.775 28.3637 204.666 33.3301 202.783C36.3359 201.647 41.2893 201.602 46.2687 202.186C48.3331 202.426 50.2742 203.452 51.4947 205.133C52.5075 206.529 53.0268 208.334 51.4298 210.197C50.3262 211.483 48.6577 212.132 46.9633 212.132H36.8098" stroke="#302A3E" stroke-width="1.2984" stroke-linecap="round" stroke-linejoin="round"/>
<path d="M48.4243 212.132C48.4243 212.132 52.8064 212.45 54.5203 214.112C56.3316 215.865 57.2404 221.805 50.9886 222.532C44.7368 223.259 40.4326 223.214 40.4326 223.214" stroke="#302A3E" stroke-width="1.2984" stroke-linecap="round" stroke-linejoin="round"/>
<path d="M50.9887 222.538C50.9887 222.538 61.7589 221.195 61.2785 227.174C60.8436 232.523 45.2822 232.744 45.2822 232.744" stroke="#302A3E" stroke-width="1.2984" stroke-linecap="round" stroke-linejoin="round"/>
<path d="M58.5327 230.641C58.5327 230.641 62.5058 233.036 60.7465 235.99C58.9871 238.944 56.8123 240.034 49.9697 240.281" stroke="#302A3E" stroke-width="1.2984" stroke-linecap="round" stroke-linejoin="round"/>
<path d="M37.582 188.501C37.582 188.501 41.0358 196.934 43.2885 201.803" stroke="#302A3E" stroke-width="1.2984" stroke-linecap="round" stroke-linejoin="round"/>
<path d="M59.1295 238.126L59.6488 239.249C60.5967 241.307 63.0377 242.203 65.0891 241.248L66.816 240.45C68.8675 239.502 69.7634 237.068 68.8155 235.01L43.6006 185.677" stroke="#302A3E" stroke-width="1.2984" stroke-linecap="round" stroke-linejoin="round"/>
<path d="M37.5819 188.501L1.22663 109.902C1.01889 109.461 0.953966 108.961 1.03187 108.48L1.05784 108.337C1.34998 106.572 3.38198 105.721 4.84917 106.74C5.18676 106.981 5.46591 107.299 5.64769 107.675L43.6 185.696" stroke="#302A3E" stroke-width="1.2984" stroke-linecap="round" stroke-linejoin="round"/>
</symbol>

</svg>